<svg xmlns="http://www.w3.org/2000/svg" xmlns:xlink="http://www.w3.org/1999/xlink" viewBox="0 0 1364.92 972.12"><defs><style>.cls-1,.cls-10,.cls-11,.cls-2,.cls-5{fill:none;}.cls-10,.cls-11,.cls-2,.cls-5,.cls-7,.cls-8{stroke:#0e8b7b;stroke-width:3px;}.cls-2,.cls-7,.cls-8{stroke-linejoin:round;}.cls-3{fill:#b3e0d7;}.cls-4{fill:#fff;}.cls-10,.cls-11,.cls-5{stroke-miterlimit:10;}.cls-6{fill:#0e8b7b;}.cls-7{fill:#333;}.cls-8{fill:#16b292;}.cls-9{clip-path:url(#clip-path);}.cls-10{stroke-dasharray:12;}.cls-11{stroke-dasharray:12 12;}</style><clipPath id="clip-path"><path class="cls-1" d="M413.75,466.26c0-125.71,37.77-225.41,154.19-225.41,117,0,154.81,99.7,154.81,225.41,0,126.32-37.77,226.64-154.81,226.64C451.52,692.9,413.75,592.58,413.75,466.26Zm246.46,0c0-94.75-20.43-169.06-92.27-169.06-71.21,0-91.65,74.31-91.65,169.06,0,95.36,20.44,170.29,91.65,170.29C639.78,636.55,660.21,561.62,660.21,466.26Z"/></clipPath></defs><title>Middel 2</title><g id="Laag_2" data-name="Laag 2"><g id="Layer_1" data-name="Layer 1"><path class="cls-2" d="M91.74,652C91.74,496,306,473.69,306,370.89c0-43.34-32.82-72.45-78.64-72.45-57.59,0-88.55,55.73-88.55,55.73L93.6,323.83s39.63-83,138.09-83c80.51,0,138.1,50.16,138.1,125.71,0,143.66-208.69,166-209.93,265.66H376.6v53.25H94.84A216.36,216.36,0,0,1,91.74,652Z"/><path class="cls-3" d="M771.68,632.22h96.6V349.84c0-13.63.62-27.25.62-27.25h-1.24s-4.95,9.91-21,25.39l-40.87,40.25-37.16-38.39L873.24,248.28h54.49V632.22h95.36v53.25H771.68Z"/><path class="cls-4" d="M1132.7,442.73c-28.48-20.44-48.92-47.07-48.92-87.32,0-58.21,44-114.56,136.24-114.56,81.12,0,137.47,45.21,137.47,117,0,58.21-46.44,107.75-52,113.94,33.44,20.44,59.45,47.68,59.45,92.89,0,68.12-58.83,128.18-149.86,128.18-87.31,0-152.33-54.49-152.33-133.76C1062.73,492.27,1120.94,450.78,1132.7,442.73Zm45.21,26c-14.24,9.91-52.64,39.64-52.64,86.7,0,50.16,43.35,82.36,89.79,82.36,45.83,0,86.7-29.73,86.7-74.93C1301.76,515.8,1236.74,497.22,1177.91,468.73ZM1259,447.68c6.81-6.81,38.39-40.25,38.39-86.08,0-40.25-32.2-65.64-78-65.64-48.3,0-74.93,27.25-74.93,60.69C1144.47,405,1202.68,423.53,1259,447.68Z"/><path class="cls-4" d="M229.92,814.55s4.62,4.5,10.62,4.5c3.24,0,6.18-1.68,6.18-5.16,0-7.62-20.1-6.3-20.1-19.38,0-7.08,6.12-12.36,14.28-12.36,8.4,0,12.72,4.56,12.72,4.56l-3.36,6.3a15.55,15.55,0,0,0-9.42-3.72c-3.6,0-6.42,2.1-6.42,5.1,0,7.56,20,5.7,20,19.32,0,6.78-5.16,12.48-14,12.48a20.62,20.62,0,0,1-14.7-5.82Z"/><path class="cls-4" d="M277,789.53H263v-6.66h35.7v6.66h-14v35.94H277Z"/><path class="cls-4" d="M329.1,814.55H314.16l-3.6,10.92h-8l15-42.6h8.1l15,42.6h-8Zm-7.5-24.3s-1,4.2-1.8,6.6L316,808.25h11.16l-3.78-11.4c-.78-2.4-1.68-6.6-1.68-6.6Z"/><path class="cls-4" d="M358.5,789.53h-14v-6.66h35.7v6.66h-14v35.94H358.5Z"/><path class="cls-4" d="M391.86,782.87h25.5v6.66H399.6v11.16h14.34v6.66H399.6v11.46h18.72v6.66H391.86Z"/><path class="cls-4" d="M472,782.15c12.54,0,22,9.54,22,21.72,0,12.54-9.48,22.32-22,22.32s-22-9.78-22-22.32C450,791.69,459.48,782.15,472,782.15Zm0,37c7.8,0,14-6.48,14-15.24,0-8.4-6.24-14.64-14-14.64s-14,6.24-14,14.64C458,812.63,464.22,819.11,472,819.11Z"/><path class="cls-4" d="M507.9,782.87h24.48v6.66H515.64v12.06h14.1v6.66h-14.1v17.22H507.9Z"/><path class="cls-4" d="M566.22,782.87H574v18.06h19.5V782.87h7.74v42.6h-7.74V807.59H574v17.88h-7.74Z"/><path class="cls-4" d="M639.18,814.55H624.24l-3.6,10.92h-8l15-42.6h8.1l15,42.6h-8Zm-7.5-24.3s-1,4.2-1.8,6.6l-3.78,11.4h11.16l-3.78-11.4c-.78-2.4-1.68-6.6-1.68-6.6Z"/><path class="cls-4" d="M662.22,782.87H676c4.62,0,6.72.36,8.58,1.2,4.26,1.92,7,6,7,11.64,0,5.1-2.7,9.84-7.2,11.64v.12a10.41,10.41,0,0,1,1.44,2.1l8.76,15.9h-8.64l-8.46-15.9H670v15.9h-7.74Zm14.7,20c4.14,0,6.72-2.46,6.72-6.72,0-4.08-1.74-6.6-7.8-6.6H670v13.32Z"/><path class="cls-4" d="M707.7,782.87h14.52c13.14,0,21.72,7.8,21.72,21.24s-8.58,21.36-21.72,21.36H707.7Zm14.1,35.94c8.64,0,14.16-5.1,14.16-14.7s-5.64-14.58-14.16-14.58h-6.36v29.28Z"/><path class="cls-4" d="M792.3,812.33a33.7,33.7,0,0,1,.78,4.5h.12a37.64,37.64,0,0,1,.72-4.5l7-29.46h8l-11,42.6H789l-6.54-25.2a50.74,50.74,0,0,1-1.08-5.58h-.12a50.74,50.74,0,0,1-1.08,5.58l-6.54,25.2H764.7L754,782.87h8l6.72,29.46a37.64,37.64,0,0,1,.72,4.5h.12a33.7,33.7,0,0,1,.78-4.5L778,782.87h6.72Z"/><path class="cls-4" d="M841.8,814.55H826.86l-3.6,10.92h-8l15-42.6h8.1l15,42.6h-8Zm-7.5-24.3s-1,4.2-1.8,6.6l-3.78,11.4h11.16l-3.78-11.4c-.78-2.4-1.68-6.6-1.68-6.6Z"/><path class="cls-4" d="M864.84,782.87h13.74c4.62,0,6.72.36,8.58,1.2,4.26,1.92,7,6,7,11.64,0,5.1-2.7,9.84-7.2,11.64v.12a10.41,10.41,0,0,1,1.44,2.1l8.76,15.9h-8.64L880,809.57h-7.44v15.9h-7.74Zm14.7,20c4.14,0,6.72-2.46,6.72-6.72,0-4.08-1.74-6.6-7.8-6.6h-5.88v13.32Z"/><path class="cls-4" d="M910.32,782.87h25.5v6.66H918.06v11.16H932.4v6.66H918.06v11.46h18.72v6.66H910.32Z"/><path class="cls-4" d="M971.4,782.87h13.74c4.62,0,6.72.36,8.58,1.2,4.26,1.92,7,6,7,11.64,0,5.1-2.7,9.84-7.2,11.64v.12a10.41,10.41,0,0,1,1.44,2.1l8.76,15.9H995l-8.46-15.9h-7.44v15.9H971.4Zm14.7,20c4.14,0,6.72-2.46,6.72-6.72,0-4.08-1.74-6.6-7.8-6.6h-5.88v13.32Z"/><path class="cls-4" d="M1016.88,782.87h25.5v6.66h-17.76v11.16H1039v6.66h-14.34v11.46h18.72v6.66h-26.46Z"/><path class="cls-4" d="M1057.38,782.87h16.44c8,0,13.56,5.58,13.56,13.86s-5.58,14-13.56,14h-8.7v14.7h-7.74Zm15,21.18c4.5,0,7.14-2.88,7.14-7.32s-2.64-7.2-7-7.2h-7.38v14.52Z"/><path class="cls-4" d="M1119.3,782.15c12.54,0,22,9.54,22,21.72,0,12.54-9.48,22.32-22,22.32s-22-9.78-22-22.32C1097.28,791.69,1106.76,782.15,1119.3,782.15Zm0,37c7.8,0,14-6.48,14-15.24,0-8.4-6.24-14.64-14-14.64s-14,6.24-14,14.64C1105.26,812.63,1111.5,819.11,1119.3,819.11Z"/><path class="cls-4" d="M1155.18,782.87h13.74c4.62,0,6.72.36,8.58,1.2,4.26,1.92,7,6,7,11.64,0,5.1-2.7,9.84-7.2,11.64v.12a10.41,10.41,0,0,1,1.44,2.1l8.76,15.9h-8.64l-8.46-15.9h-7.44v15.9h-7.74Zm14.7,20c4.14,0,6.72-2.46,6.72-6.72,0-4.08-1.74-6.6-7.8-6.6h-5.88v13.32Z"/><path class="cls-4" d="M1209.48,789.53h-14v-6.66h35.7v6.66h-14v35.94h-7.74Z"/><line class="cls-5" x1="413.75" y1="204.56" x2="722.75" y2="204.56"/><line class="cls-5" x1="414" y1="221.06" x2="414" y2="187.06"/><line class="cls-5" x1="723" y1="221.56" x2="723" y2="187.56"/><line class="cls-5" x1="838.75" y1="602.06" x2="811.71" y2="575.02"/><polygon class="cls-6" points="840.32 593.77 853.79 617.1 830.46 603.63 840.32 593.77"/><path class="cls-7" d="M231.69,253.85a154.18,154.18,0,0,1,51.23,8.28A116,116,0,0,1,322.24,285c22.6,20.32,34.55,48.5,34.55,81.52,0,71.63-57.64,110.7-113.38,148.49-24.26,16.44-47.16,32-64.82,49.84-21.05,21.31-31.43,43.28-31.73,67.16l-.16,13.17H363.6v27.25H106.13A169.16,169.16,0,0,1,104.74,652a134.93,134.93,0,0,1,10.13-52.55c6.06-14.65,14.78-28.41,26.64-42.07,22.57-26,52.49-46.77,81.43-66.89,24.39-16.95,47.42-33,65-51.25,20.9-21.74,31.06-44.11,31.06-68.38,0-24.54-9.37-46.59-26.38-62.09-16.53-15.06-39.71-23.36-65.26-23.36-26.9,0-52.74,10.85-74.74,31.36a148.87,148.87,0,0,0-17.35,19.35L111,319.84a155.32,155.32,0,0,1,24.33-28.67,138.56,138.56,0,0,1,96.37-37.32"/><line class="cls-8" x1="106" y1="672.06" x2="95" y2="685.06"/><line class="cls-8" x1="135" y1="336.06" x2="139" y2="354.06"/><line class="cls-8" x1="111" y1="320.06" x2="94" y2="324.06"/><line class="cls-8" x1="147" y1="645.06" x2="160" y2="632.06"/><line class="cls-8" x1="364" y1="645.06" x2="377" y2="632.06"/><line class="cls-8" x1="364" y1="672.06" x2="377" y2="685.06"/><circle class="cls-5" cx="568.5" cy="734.56" r="11"/><line class="cls-5" x1="568" y1="755.06" x2="568" y2="713.06"/><line class="cls-5" x1="589" y1="734.06" x2="547" y2="734.06"/><circle class="cls-5" cx="729.5" cy="659.56" r="11"/><line class="cls-5" x1="729" y1="680.06" x2="729" y2="638.06"/><line class="cls-5" x1="750" y1="659.06" x2="708" y2="659.06"/><circle class="cls-5" cx="92.74" cy="373.57" r="11"/><line class="cls-5" x1="92.24" y1="394.07" x2="92.24" y2="352.07"/><line class="cls-5" x1="113.24" y1="373.07" x2="71.24" y2="373.07"/><circle class="cls-5" cx="21.5" cy="806.56" r="11"/><line class="cls-5" x1="21" y1="827.06" x2="21" y2="785.06"/><line class="cls-5" x1="42" y1="806.06" y2="806.06"/><circle class="cls-5" cx="568.5" cy="471.56" r="11"/><line class="cls-5" x1="568" y1="579.56" x2="568" y2="450.06"/><line class="cls-5" x1="589" y1="471.06" x2="547" y2="471.06"/><g class="cls-9"><line class="cls-5" x1="392" y1="617.06" x2="746" y2="971.06"/><line class="cls-5" x1="392" y1="589.06" x2="746" y2="943.06"/><line class="cls-5" x1="392" y1="561.06" x2="746" y2="915.06"/><line class="cls-5" x1="392" y1="533.06" x2="746" y2="887.06"/><line class="cls-5" x1="392" y1="505.06" x2="746" y2="859.06"/><line class="cls-5" x1="392" y1="477.06" x2="746" y2="831.06"/><line class="cls-5" x1="392" y1="449.06" x2="746" y2="803.06"/><line class="cls-5" x1="392" y1="421.06" x2="746" y2="775.06"/><line class="cls-5" x1="392" y1="393.06" x2="746" y2="747.06"/><line class="cls-5" x1="392" y1="365.06" x2="746" y2="719.06"/><line class="cls-5" x1="392" y1="337.06" x2="746" y2="691.06"/><line class="cls-5" x1="392" y1="309.06" x2="746" y2="663.06"/><line class="cls-5" x1="392" y1="281.06" x2="746" y2="635.06"/><line class="cls-5" x1="392" y1="253.06" x2="746" y2="607.06"/><line class="cls-5" x1="392" y1="225.06" x2="746" y2="579.06"/><line class="cls-5" x1="392" y1="197.06" x2="746" y2="551.06"/><line class="cls-5" x1="392" y1="169.06" x2="746" y2="523.06"/><line class="cls-5" x1="392" y1="141.06" x2="746" y2="495.06"/><line class="cls-5" x1="392" y1="113.06" x2="746" y2="467.06"/><line class="cls-5" x1="392" y1="85.06" x2="746" y2="439.06"/><line class="cls-5" x1="392" y1="57.06" x2="746" y2="411.06"/><line class="cls-5" x1="392" y1="29.06" x2="746" y2="383.06"/><line class="cls-5" x1="392" y1="1.06" x2="746" y2="355.06"/></g><path class="cls-10" d="M293,631.56a66.52,66.52,0,0,0-92.38-61.27"/><line class="cls-5" x1="71.5" y1="806.06" x2="185.5" y2="806.06"/><polyline class="cls-5" points="543.5 859.06 185 859.06 185 746.06 437 746.06"/><rect class="cls-5" x="185" y="721.06" width="192" height="25"/><rect class="cls-5" x="185" y="721.06" width="49" height="25"/><path class="cls-5" d="M413.75,466.26c0-125.71,37.77-225.41,154.19-225.41,117,0,154.81,99.7,154.81,225.41,0,126.32-37.77,226.64-154.81,226.64C451.52,692.9,413.75,592.58,413.75,466.26Zm246.46,0c0-94.75-20.43-169.06-92.27-169.06-71.21,0-91.65,74.31-91.65,169.06,0,95.36,20.44,170.29,91.65,170.29C639.78,636.55,660.21,561.62,660.21,466.26Z"/><line class="cls-5" x1="568" y1="596.06" x2="568" y2="672.06"/><path class="cls-5" d="M994,197.06a48,48,0,0,1-27.26,43.3"/><polygon class="cls-6" points="969.53 231.95 946 245.06 972.93 245.47 969.53 231.95"/><line class="cls-11" x1="236" y1="366.06" x2="299.5" y2="366.06"/><rect class="cls-6" x="234.5" y="356.31" width="3" height="19.5"/></g></g></svg>