<?xml version="1.0" encoding="UTF-8"?>
<svg width="19px" height="19px" viewBox="0 0 19 19" version="1.1" xmlns="http://www.w3.org/2000/svg" xmlns:xlink="http://www.w3.org/1999/xlink">
    <!-- Generator: Sketch 59.1 (86144) - https://sketch.com -->
    <title>checkmark_white</title>
    <desc>Created with Sketch.</desc>
    <defs>
        <polygon id="path-1" points="0 0.021255315 18.9787447 0.021255315 18.9787447 18.9999738 0 18.9999738"></polygon>
    </defs>
    <g id="version-2" stroke="none" stroke-width="1" fill="none" fill-rule="evenodd">
        <g id="fictiv-3D-printing-solutions" transform="translate(-672.000000, -2624.000000)">
            <g id="Group-6" transform="translate(600.000000, 2409.000000)">
                <g id="checkmark_white" transform="translate(72.000000, 215.000000)">
                    <path d="M9.48180225,14 C9.25592699,14 9.03958843,13.9052849 8.89071188,13.7381828 L6.18811267,10.704045 C5.90772603,10.3892346 5.94505649,9.91480061 6.27153104,9.64439575 C6.5980798,9.37402668 7.09001809,9.41009497 7.37044184,9.72483377 L9.34361275,11.9401355 L12.5392264,6.38697801 C12.748032,6.02407659 13.2224183,5.89315011 13.5986916,6.09453142 C13.9750019,6.29584116 14.1108165,6.75327872 13.9019737,7.11614436 L10.1632501,13.6131604 C10.0395327,13.8281747 9.81454802,13.9711955 9.5608419,13.9961355 C9.53442113,13.9987476 9.50803748,14 9.48180225,14" id="Fill-1" fill="#FFFFFF"></path>
                    <g id="Group-5">
                        <mask id="mask-2" fill="white">
                            <use xlink:href="#path-1"></use>
                        </mask>
                        <g id="Clip-4"></g>
                        <path d="M9.48936673,1.67676122 C5.16974665,1.67676122 1.65545728,5.19101319 1.65545728,9.51067067 C1.65545728,13.8302533 5.16974665,17.3445427 9.48936673,17.3445427 C13.8089868,17.3445427 17.3232762,13.8302533 17.3232762,9.51067067 C17.3232762,5.19101319 13.8089868,1.67676122 9.48936673,1.67676122 M9.48936673,18.9999738 C6.95462461,18.9999738 4.57165807,18.0129463 2.77937461,16.2206254 C0.98705374,14.4283419 -1.12204724e-05,12.045338 -1.12204724e-05,9.51067067 C-1.12204724e-05,6.97592854 0.98705374,4.59296201 2.77937461,2.80064114 C4.57165807,1.00832028 6.95462461,0.021255315 9.48936673,0.021255315 C12.0240715,0.021255315 14.407038,1.00832028 16.1993589,2.80064114 C17.9916797,4.59296201 18.9787447,6.97592854 18.9787447,9.51067067 C18.9787447,12.045338 17.9916797,14.4283419 16.1993589,16.2206254 C14.407038,18.0129463 12.0240715,18.9999738 9.48936673,18.9999738" id="Fill-3" fill="#FFFFFF" mask="url(#mask-2)"></path>
                    </g>
                </g>
            </g>
        </g>
    </g>
</svg>