<svg width="32" height="32" viewBox="0 0 32 32" fill="none" xmlns="http://www.w3.org/2000/svg">
<path d="M11.1355 31L18.6188 16.2536C21.2886 10.9809 17.9394 4.42588 12.0542 3.94741C11.8054 3.92827 11.5566 3.9187 11.3078 3.9187C10.8006 3.9187 10.303 3.95698 9.82454 4.0431C4.33173 4.95219 1.43221 11.1244 3.8724 16.1292L11.1355 31Z" stroke="#0D0B70" stroke-width="1.2" stroke-miterlimit="10" stroke-linecap="round"/>
<path d="M11.337 15.287C13.1762 15.287 14.6671 13.7961 14.6671 11.9569C14.6671 10.1177 13.1762 8.62677 11.337 8.62677C9.49779 8.62677 8.00684 10.1177 8.00684 11.9569C8.00684 13.7961 9.49779 15.287 11.337 15.287Z" stroke="#0D0B70" stroke-width="1.2" stroke-miterlimit="10" stroke-linecap="round"/>
<path d="M18.8105 16.1675L21.5474 21.7752" stroke="#0D0B70" stroke-width="1.2" stroke-miterlimit="10" stroke-linecap="round"/>
<path d="M21.5472 21.7751L27.2888 10.4641C29.3366 6.42583 26.772 1.39234 22.2553 1.01914C22.0639 1 21.8821 1 21.6907 1C21.2984 1 20.9252 1.02871 20.552 1.09569C18.2075 1.48804 16.4754 3.1244 15.729 5.16267" stroke="#0D0B70" stroke-width="1.2" stroke-miterlimit="10" stroke-linecap="round"/>
</svg>
