<svg width="32" height="32" viewBox="0 0 32 32" fill="none" xmlns="http://www.w3.org/2000/svg">
<path fill-rule="evenodd" clip-rule="evenodd" d="M16.4726 4.02345C17.3109 4.05318 18.3097 4.21667 19.2015 4.47232C21.9423 5.2571 24.2907 6.96043 25.9792 9.38017C26.0713 9.51394 26.1486 9.63879 26.1486 9.65663C26.1486 9.68041 26.0149 9.68932 25.7206 9.68932H25.2925L25.1558 9.4961C24.7782 8.97292 24.041 8.15246 23.5565 7.72143L23.3484 7.53713L22.8401 7.66495C21.9304 7.8879 20.9286 8.06923 19.9298 8.19111C19.7039 8.22083 19.5196 8.25353 19.5196 8.26245C19.5196 8.27434 19.5612 8.41703 19.6118 8.57755C19.7277 8.96103 19.9061 9.60312 19.9061 9.65068C19.9061 9.68041 19.8139 9.68932 19.5345 9.68932H19.1659L19.1153 9.51691C19.1033 9.4703 19.0844 9.40316 19.0649 9.33356C19.0457 9.26556 19.026 9.19521 19.0113 9.13938C18.9162 8.81239 18.7705 8.36947 18.7467 8.34271C18.7348 8.32785 18.5386 8.33082 18.3127 8.34866C18.0898 8.3665 17.4566 8.39622 16.9096 8.41703C15.8603 8.4527 14.3829 8.42 13.396 8.33677C13.1433 8.31596 12.9263 8.30704 12.9144 8.31893C12.8906 8.34271 12.6766 9.01156 12.5755 9.38909L12.4952 9.68932H12.1296C11.7937 9.68932 11.761 9.68338 11.761 9.63582C11.761 9.57042 11.9304 8.94022 12.0583 8.53296C12.1088 8.37839 12.1385 8.24164 12.1237 8.22975C12.1118 8.22083 11.9631 8.19408 11.7907 8.17625C10.9792 8.08409 9.80202 7.86709 8.9013 7.64711L8.34542 7.51037L8.18787 7.64414C7.70927 8.05437 6.93936 8.8986 6.54399 9.44259L6.36563 9.68932H5.92865C5.6849 9.68932 5.4887 9.68041 5.4887 9.67149C5.4887 9.63284 5.96433 8.97292 6.23186 8.63403C7.37336 7.20419 8.77051 6.08053 10.4233 5.26305C11.6837 4.63879 12.9144 4.27316 14.3621 4.08588C14.7277 4.03832 15.6968 3.98778 15.9227 4.00264C15.9792 4.00562 16.2289 4.01751 16.4726 4.02345ZM15.4144 4.76367C14.7277 4.99851 14.0737 5.74168 13.4732 6.96938C13.3365 7.24584 13.2176 7.49851 13.2087 7.52527C13.1938 7.56688 13.2176 7.57877 13.3454 7.59364C14.0826 7.6739 16.0149 7.71552 17.0672 7.67093C18.3305 7.61742 18.4495 7.6085 18.4495 7.55202C18.4495 7.4777 18.0036 6.58294 17.8133 6.27973C17.4269 5.65547 17.0434 5.22146 16.651 4.96284C16.2378 4.6953 15.8187 4.62693 15.4144 4.76367ZM9.49582 6.64531C10.8573 5.75351 12.1593 5.21546 13.7527 4.87955C13.827 4.86172 13.9191 4.84983 13.9607 4.84685C14.0291 4.84388 14.0291 4.84685 13.928 4.95387C13.4703 5.43544 12.9054 6.35993 12.5428 7.20714L12.4179 7.5044L12.305 7.49549C11.7818 7.45387 10.2806 7.20714 9.56122 7.04364L9.47038 7.02398C9.29115 6.98517 9.14932 6.95446 9.1391 6.95446C9.05587 6.95446 9.16288 6.86231 9.49582 6.64531ZM17.7509 4.96878C17.956 5.20659 18.2949 5.67329 18.4673 5.94975C18.6784 6.29161 18.9964 6.91586 19.1332 7.26366L19.2372 7.52228L19.4305 7.50445C20.3668 7.41229 22.5815 7.02288 22.5815 6.94856C22.5815 6.9337 22.3912 6.79696 22.1593 6.64535C20.893 5.81004 19.4899 5.21551 18.0957 4.92121L18.0884 4.91966C17.7997 4.8587 17.6892 4.83537 17.6769 4.86043C17.6692 4.87597 17.6993 4.91011 17.7479 4.9654L17.7509 4.96878Z" fill="white"/>
<path d="M15.0755 10.8219C15.5392 10.8784 15.8008 10.8903 17.0464 10.8992L18.4792 10.9111V14.1186H15.9257L15.9078 13.42L15.7295 13.3487C15.2182 13.1465 14.5315 13.0365 13.7675 13.0336C13.0155 13.0336 12.6766 13.099 12.3526 13.316C12.0196 13.533 11.9721 13.9759 12.2485 14.2494C12.5369 14.5407 12.8906 14.6328 14.4661 14.829C15.8276 15.0015 16.3537 15.1114 17.0137 15.3701C17.3317 15.4949 17.733 15.7297 17.9828 15.9408C18.3514 16.247 18.6546 16.7523 18.7943 17.2874C18.8983 17.6858 18.9281 18.4527 18.8537 18.86C18.7259 19.5556 18.4643 20.055 17.9857 20.5098C17.4685 21.0032 16.8026 21.3272 15.8841 21.5324C14.8704 21.7613 13.4346 21.7969 11.9958 21.6334C11.5024 21.5799 11.217 21.568 10.0309 21.5591L8.63971 21.5472V18.3695H11.1962V19.0234L11.3121 19.0829C11.6897 19.2732 12.4655 19.4129 13.283 19.4307C14.692 19.4664 15.3252 19.2167 15.3282 18.6221C15.3282 18.3903 15.2628 18.2654 15.0666 18.1287C14.7812 17.9265 14.3799 17.8344 13.0987 17.6709C11.5589 17.4717 10.9495 17.332 10.2806 17.0169C9.21343 16.5116 8.68727 15.7416 8.58026 14.5288C8.5208 13.8867 8.62485 13.2862 8.87752 12.763C9.4453 11.5888 10.7443 10.9141 12.7568 10.7476C13.1611 10.7149 14.5583 10.7595 15.0755 10.8219Z" fill="white"/>
<path fill-rule="evenodd" clip-rule="evenodd" d="M26.327 10.8041C27.6528 11.0032 28.7081 11.5026 29.5256 12.3171C30.5214 13.313 31.003 14.5912 31 16.2292C31 17.0139 30.9138 17.6025 30.7087 18.2208C30.0101 20.3195 28.1997 21.574 25.6522 21.7256C24.3175 21.8029 22.959 21.5383 21.9869 21.0092C21.33 20.6525 20.6314 20.0252 20.2539 19.4545C19.7961 18.7589 19.5137 17.9622 19.4007 17.0318C19.3561 16.6602 19.365 15.7208 19.4156 15.3314C19.6593 13.4884 20.6462 12.0912 22.2336 11.3391C22.8965 11.027 23.6129 10.8397 24.4988 10.7476C24.7961 10.7179 26 10.7535 26.327 10.8041ZM23.0393 15.3879C23.2176 14.1156 23.7943 13.4111 24.7842 13.2595C25.0309 13.2208 25.5452 13.2446 25.7919 13.3011C26.2319 13.4081 26.6272 13.6816 26.871 14.0531C27.2218 14.5823 27.3674 15.2214 27.3674 16.2291C27.3645 17.4568 27.1564 18.1673 26.6391 18.6816C26.2676 19.0561 25.9257 19.1929 25.2985 19.2226C24.0945 19.2791 23.3662 18.6697 23.0838 17.3677C22.9947 16.9515 22.9709 15.8843 23.0393 15.3879Z" fill="white"/>
<path d="M7.86682 13.5835H6.14269V18.9343H7.86682V21.5799L1.01486 21.5651L1.00595 20.2482L1 18.9343H2.72414V13.5835L1.87099 13.5776L1.01486 13.5686L1.00595 12.2517L1 10.9378H7.86682V13.5835Z" fill="white"/>
<path fill-rule="evenodd" clip-rule="evenodd" d="M6.46968 22.9682C6.8472 23.5032 7.6736 24.4218 8.14031 24.8261L8.30975 24.9717L8.79429 24.8528C9.72473 24.6239 10.6463 24.4545 11.5975 24.3385C11.8918 24.3029 12.1355 24.2702 12.1415 24.2672C12.1474 24.2642 12.1088 24.1305 12.0583 23.967C11.9364 23.5835 11.761 22.9473 11.761 22.8819C11.761 22.8344 11.7967 22.8284 12.1296 22.8284H12.4952L12.5755 23.1168C12.6171 23.2665 12.7 23.5453 12.764 23.7607L12.7776 23.8064L12.9025 24.2018L13.069 24.184C14.0291 24.0859 16.5321 24.0591 17.7063 24.1364C18.0749 24.1602 18.4613 24.181 18.5654 24.181H18.7586L18.8597 23.8689C18.9162 23.6965 19.0053 23.3962 19.0588 23.2L19.1569 22.8433L19.5315 22.8344C19.7812 22.8284 19.9061 22.8374 19.9061 22.8582C19.9061 22.9087 19.6474 23.8362 19.5672 24.068L19.4929 24.2821L19.588 24.2969C19.6415 24.3058 19.8496 24.3356 20.0547 24.3594C20.9257 24.4693 22.0077 24.6745 22.8282 24.8825C23.2533 24.9925 23.3038 24.9985 23.3632 24.9598C23.5059 24.8647 24.148 24.2256 24.4572 23.8778C24.6355 23.6727 24.8971 23.3546 25.0368 23.1673L25.2955 22.8284H25.7206C25.9554 22.8284 26.1486 22.8403 26.1486 22.8522C26.1486 22.8909 25.7562 23.4557 25.5273 23.75C23.4762 26.3926 20.4471 28.0811 17.0969 28.4527C16.544 28.5121 14.9447 28.5032 14.4215 28.4378C11.7015 28.0871 9.40963 27.0169 7.42093 25.1679C6.73722 24.5318 5.88109 23.5032 5.50654 22.8641C5.4887 22.8374 5.58085 22.8284 5.92865 22.8284H6.37158L6.46968 22.9682ZM14.5553 24.838C13.7526 24.8826 13.2027 24.9153 13.1938 24.9242C13.17 24.948 13.5446 25.7179 13.7408 26.0567C14.1629 26.7821 14.579 27.2696 15.0071 27.549C15.2865 27.7304 15.456 27.7898 15.7324 27.8136C16.0029 27.8344 16.1991 27.7898 16.5023 27.6352C16.8442 27.4598 17.3377 26.9634 17.6736 26.4551C17.8965 26.1192 18.4494 25.0639 18.4494 24.9747C18.4494 24.9271 18.387 24.9182 17.8103 24.8796C17.3228 24.8469 14.9477 24.8172 14.5553 24.838ZM11.4697 25.1055C11.7699 25.0639 12.0553 25.0253 12.1028 25.0193C12.1534 25.0104 12.2425 25.0074 12.305 25.0104L12.4179 25.0134L12.5606 25.3404C12.9292 26.1876 13.384 26.9367 13.8656 27.4866C13.9548 27.5906 14.0113 27.6739 13.9934 27.6739C13.9756 27.6739 13.7735 27.6352 13.5446 27.5847C12.4387 27.3528 11.3329 26.9337 10.3163 26.3659C9.92388 26.1489 9.14207 25.6465 9.08857 25.5811C9.06479 25.5514 9.1718 25.5187 9.57014 25.4325C10.1974 25.2987 10.7562 25.2036 11.4697 25.1055ZM19.1658 25.1857C19.0559 25.4652 18.6873 26.1964 18.494 26.5145C18.2859 26.8593 18.0333 27.2101 17.8133 27.4628C17.7211 27.5698 17.6528 27.659 17.6587 27.6679C17.6914 27.7006 18.7021 27.4568 19.2431 27.2844C20.2152 26.9753 21.4399 26.3688 22.3258 25.7595L22.5874 25.5781L22.4298 25.5424C21.6331 25.3581 20.6789 25.1857 19.9209 25.0876L19.9198 25.0875C19.6586 25.0548 19.3976 25.0222 19.3412 25.0133C19.301 25.0087 19.2764 25.0059 19.2571 25.0148C19.2265 25.0289 19.2096 25.0726 19.1658 25.1857Z" fill="white"/>
</svg>
