<?xml version="1.0" encoding="UTF-8"?>
<svg width="14px" height="14px" viewBox="0 0 14 14" version="1.1" xmlns="http://www.w3.org/2000/svg" xmlns:xlink="http://www.w3.org/1999/xlink">
    <g id="Symbols" stroke="none" stroke-width="1" fill="none" fill-rule="evenodd">
        <g id="Share-Bar-Desktop" transform="translate(-582.000000, -12.000000)" fill="#0072B1">
            <g id="linkedin" transform="translate(582.000000, 12.000000)">
                <path d="M1.65043617,3.46437483 C2.57324468,3.46497021 3.31390426,2.73488511 3.31539587,1.82309787 C3.31688298,0.89567234 2.58039362,0.149651064 1.66235106,0.14890602 C0.733734043,0.148310638 -0.000223404255,0.882119149 -7.44907479e-05,1.81103404 C7.44680851e-05,2.73145957 0.731351064,3.46392766 1.65043617,3.46437483 M3.09794681,9.27705532 C3.09794681,7.81822553 3.09615957,6.35924681 3.1007766,4.90041702 C3.1012234,4.74239574 3.06235106,4.68297021 2.89181915,4.68471843 C2.0701383,4.69324681 1.24830851,4.69205532 0.42662766,4.68550213 C0.268755319,4.6841617 0.211712766,4.72139574 0.212156973,4.89192766 C0.217223404,7.80973617 0.217223404,10.7275447 0.212156973,13.6452043 C0.211712766,13.8155872 0.269797872,13.8577362 0.42737234,13.8566936 C1.24309574,13.8513319 2.05896809,13.8492468 2.87469149,13.8580802 C3.06205319,13.8601191 3.10226596,13.7917574 3.10153135,13.6179489 C3.09541489,12.171034 3.09809574,10.7239702 3.09794681,9.27705532 M7.6017766,5.93701277 C7.6017766,5.55275745 7.59462766,5.22539574 7.60490426,4.89833191 C7.60996809,4.73628936 7.56037234,4.68311915 7.39341489,4.68490638 C6.6131383,4.69309787 5.83271277,4.69473617 5.05243617,4.68401277 C4.86403191,4.68148085 4.82619923,4.74656596 4.8265,4.91977872 C4.83111702,7.82075745 4.83126596,10.7217362 4.82619923,13.622566 C4.82575532,13.8024809 4.87684043,13.8596723 5.05779787,13.8577362 C5.8678617,13.8496936 6.67807447,13.8493957 7.48798936,13.8580789 C7.67192553,13.8599702 7.71675532,13.7995021 7.71601064,13.6216723 C7.70901064,12.1623957 7.70796809,10.7029702 7.71526596,9.24369362 C7.71675532,8.9418 7.73626596,8.63603404 7.78928723,8.33920426 C7.89935106,7.72231064 8.18232979,7.2235234 8.84271277,7.05775745 C9.03558511,7.00935319 9.24245745,6.99788511 9.44262766,6.99982128 C10.1460532,7.00697021 10.5709681,7.32122553 10.7202021,8.00484255 C10.806734,8.4011617 10.8335426,8.81669362 10.837266,9.22403404 C10.8505213,10.6892681 10.8450106,12.1546511 10.8393511,13.620034 C10.8386064,13.7965234 10.8886489,13.8596723 11.0718404,13.8577362 C11.8819043,13.8495447 12.6919681,13.8498426 13.5021809,13.8575872 C13.6773298,13.8593745 13.721117,13.7992043 13.7205272,13.6307574 C13.7153085,12.0165872 13.7154574,10.4022681 13.7197766,8.78794894 C13.7214149,8.1260766 13.6867128,7.4680766 13.5346489,6.82214043 C13.3595,6.07820426 13.0383936,5.42109787 12.3783085,4.97920426 C11.9428191,4.68758723 11.4535638,4.55026809 10.9404787,4.49233191 C10.3523298,4.42605532 9.76611702,4.41771489 9.19747872,4.62458723 C8.53128723,4.86690638 8.0082234,5.28839574 7.6017766,5.93701277" id="Fill-1"></path>
            </g>
        </g>
    </g>
</svg>