<?xml version="1.0" encoding="UTF-8"?>
<svg width="71px" height="96px" viewBox="0 0 71 96" version="1.1" xmlns="http://www.w3.org/2000/svg" xmlns:xlink="http://www.w3.org/1999/xlink">
    <!-- Generator: Sketch 52.6 (67491) - http://www.bohemiancoding.com/sketch -->
    <title>videoseries/icon-lock</title>
    <desc>Created with Sketch.</desc>
    <g id="Injection-molding" stroke="none" stroke-width="1" fill="none" fill-rule="evenodd">
        <g id="fictiv-landing-page-video-series-V2" transform="translate(-905.000000, -1431.000000)" fill="#FFFFFF">
            <g id="Group-6" transform="translate(290.000000, 1262.000000)">
                <g id="Group-2" transform="translate(440.000000, 79.000000)">
                    <g id="Rectangle-2">
                        <path d="M187.5002,127.5 L187.5002,111.008 C187.5002,99.406 197.7582,90 210.4182,90 C223.0742,90 233.3362,99.4141 233.3362,111.008 L233.3362,127.5 L237.9846,127.5 C242.3205,127.5 245.8362,131.2383 245.8362,135.8281 L245.8362,177.5081 C245.8362,182.105801 242.3206,185.836201 237.9846,185.836201 L182.8516,185.836201 C178.5157,185.836201 175,182.097901 175,177.5081 L175,135.8281 C175,131.2304 178.5156,127.5 182.8516,127.5 L187.5002,127.5 Z M183.3361,135.8359 L183.3361,177.4999 L237.5001,177.4999 L237.5001,135.8359 L183.3361,135.8359 Z M225.0001,127.5 L225.0001,111.008 C225.0001,104.1838 218.6212,98.336 210.4181,98.336 C202.2072,98.336 195.8361,104.1758 195.8361,111.008 L195.8361,127.5 L225.0001,127.5 Z M206.2501,151.602 C206.2501,149.3012 208.1017,147.4379 210.4181,147.4379 C212.7189,147.4379 214.5861,149.2856 214.5861,151.602 L214.5861,164.106 C214.5861,166.4068 212.7345,168.2701 210.4181,168.2701 C208.1173,168.2701 206.2501,166.4224 206.2501,164.106 L206.2501,151.602 Z" id="videoseries/icon-lock"></path>
                    </g>
                </g>
            </g>
        </g>
    </g>
</svg>