<svg width="32" height="32" viewBox="0 0 32 32" fill="none" xmlns="http://www.w3.org/2000/svg">
<path d="M20.9362 16.8677L25.0101 20.951C25.5881 21.5383 25.5881 22.4798 25.0101 23.0578C24.4228 23.6451 23.4812 23.6451 22.9032 23.0578L19.1836 19.3382" stroke="#0D0B70" stroke-width="1.2" stroke-miterlimit="10"/>
<path d="M24.3671 20.3078C24.8612 20.8019 25.6629 20.8019 26.157 20.3171C26.6604 19.823 26.6604 19.012 26.1663 18.5085L19.7991 12.1413C18.9135 11.2557 17.4778 11.2557 16.5922 12.1413C15.9676 12.7659 14.9515 12.7659 14.3269 12.1413C13.7022 11.5167 13.7022 10.5006 14.3269 9.87597L16.1168 8.08606C17.2075 6.99534 18.9881 6.99534 20.0788 8.08606C21.2907 9.29798 23.2671 9.29798 24.479 8.08606L25.0197 7.54536C25.7468 6.81821 26.9308 6.81821 27.6579 7.54536L30.4547 10.3421C31.1818 11.0692 31.1818 12.2532 30.4547 12.9803L25.5138 17.9212" stroke="#0D0B70" stroke-width="1.2" stroke-miterlimit="10"/>
<path d="M19.0808 19.2543L22.2318 22.4053C22.8191 22.9926 22.8191 23.9342 22.2318 24.5215C21.6445 25.1088 20.7029 25.1088 20.1156 24.5215L17.3188 21.7248" stroke="#0D0B70" stroke-width="1.2" stroke-miterlimit="10"/>
<path d="M17.3193 21.7155L18.4287 22.8249C19.016 23.4122 19.016 24.3538 18.4287 24.9411C17.8414 25.5191 16.8998 25.5191 16.3125 24.9411L14.998 23.6266" stroke="#0D0B70" stroke-width="1.2" stroke-miterlimit="10"/>
<path d="M9.05964 16.8677L4.98574 20.951C4.40775 21.5383 4.40775 22.4798 4.98574 23.0578C5.57305 23.6451 6.51462 23.6451 7.09261 23.0578L10.5419 19.6179" stroke="#0D0B70" stroke-width="1.2" stroke-miterlimit="10"/>
<path d="M16.3587 7.7971C15.5663 7.32166 14.6527 7.07927 13.7205 7.16317C12.9001 7.23775 12.1636 7.5081 11.6043 8.06745C10.3923 9.27937 8.42532 9.17682 7.20408 8.06745C6.47693 7.3403 5.29298 7.3403 4.56583 8.06745L1.54536 11.0972C0.818213 11.8244 0.818213 13.0083 1.54536 13.7355L5.0506 17.2407" stroke="#0D0B70" stroke-width="1.2" stroke-miterlimit="10"/>
<path d="M5.62909 20.2984C5.135 20.7925 4.33327 20.7925 3.83918 20.3078C3.33577 19.8137 3.33577 19.0026 3.82986 18.4992L7.11136 15.2177" stroke="#0D0B70" stroke-width="1.2" stroke-miterlimit="10"/>
<path d="M12.6768 21.7155L11.5674 22.8249C10.9801 23.4122 10.9801 24.3538 11.5674 24.9411C12.1548 25.5191 13.0963 25.5191 13.6836 24.9411L14.9981 23.6266" stroke="#0D0B70" stroke-width="1.2" stroke-miterlimit="10"/>
<path d="M12.658 21.7247C13.236 21.1374 13.236 20.1958 12.658 19.6179C12.0707 19.0305 11.1291 19.0305 10.5511 19.6179L7.76373 22.3959C7.17641 22.9833 7.17641 23.9248 7.76373 24.5121C8.35104 25.0994 9.29261 25.0994 9.87992 24.5121L12.6766 21.7154" stroke="#0D0B70" stroke-width="1.2" stroke-miterlimit="10"/>
<path d="M5.9458 19.9814L7.05517 18.8721" stroke="#0D0B70" stroke-width="1.2" stroke-miterlimit="10"/>
<path d="M8.45361 21.7154L11.2503 18.9186" stroke="#0D0B70" stroke-width="1.2" stroke-miterlimit="10"/>
<path d="M11.2317 16.8119C10.6444 16.2246 9.7028 16.2246 9.12481 16.8119L6.3374 19.59" stroke="#0D0B70" stroke-width="1.2" stroke-miterlimit="10"/>
<path d="M11.2319 18.9188C11.8099 18.3315 11.8099 17.3899 11.2319 16.812" stroke="#0D0B70" stroke-width="1.2" stroke-miterlimit="10"/>
<path d="M7.11068 15.2178C7.60477 14.7237 8.4065 14.7237 8.90059 15.2178C9.404 15.7119 9.404 16.5229 8.90991 17.0263L5.62842 20.3078" stroke="#0D0B70" stroke-width="1.2" stroke-miterlimit="10"/>
<path d="M13.6553 24.9689L14.7646 23.8596C15.352 23.2722 15.352 22.3307 14.7646 21.7434C14.1773 21.1654 13.2358 21.1654 12.6484 21.7434L11.334 23.0578" stroke="#0D0B70" stroke-width="1.2" stroke-miterlimit="10"/>
</svg>
