<?xml version="1.0" encoding="UTF-8"?>
<svg width="81px" height="81px" viewBox="0 0 81 81" version="1.1" xmlns="http://www.w3.org/2000/svg" xmlns:xlink="http://www.w3.org/1999/xlink">
    <!-- Generator: Sketch 63.1 (92452) - https://sketch.com -->
    <title>noun_lunch_1604946</title>
    <desc>Created with Sketch.</desc>
    <g id="version-2" stroke="none" stroke-width="1" fill="none" fill-rule="evenodd">
        <g id="fictiv-Careers" transform="translate(-95.000000, -1752.000000)" fill="#1FBE93" fill-rule="nonzero">
            <g id="noun_lunch_1604946" transform="translate(95.000000, 1752.000000)">
                <path d="M20.276,30.662 C20.473,30.891 20.752,31.007 21.031,31.007 C21.263,31.007 21.497,30.927 21.686,30.762 C22.103,30.401 22.148,29.769 21.786,29.352 L21.202,28.679 C20.84,28.26 20.21,28.216 19.792,28.579 C19.375,28.94 19.33,29.572 19.692,29.989 L20.276,30.662 Z" id="Path"></path>
                <path d="M31.29,30.326 C31.487,30.555 31.766,30.671 32.045,30.671 C32.277,30.671 32.511,30.591 32.7,30.426 C33.117,30.065 33.162,29.433 32.8,29.016 L32.216,28.343 C31.855,27.925 31.223,27.88 30.806,28.243 C30.389,28.604 30.344,29.236 30.706,29.653 L31.29,30.326 Z" id="Path"></path>
                <path d="M23.028,34.6 C23.147,34.6 23.268,34.579 23.385,34.534 L24.217,34.216 C24.733,34.019 24.99,33.441 24.793,32.925 C24.596,32.408 24.016,32.153 23.502,32.349 L22.67,32.667 C22.154,32.864 21.897,33.442 22.094,33.958 C22.247,34.356 22.626,34.6 23.028,34.6 Z" id="Path"></path>
                <path d="M12.795,31.325 C12.914,31.325 13.035,31.304 13.152,31.259 L13.983,30.941 C14.499,30.744 14.757,30.166 14.559,29.65 C14.362,29.133 13.781,28.877 13.268,29.074 L12.437,29.392 C11.921,29.589 11.663,30.167 11.861,30.683 C12.014,31.081 12.393,31.325 12.795,31.325 Z" id="Path"></path>
                <path d="M26.104,31.166 C26.223,31.166 26.344,31.145 26.461,31.1 L27.293,30.782 C27.809,30.585 28.066,30.007 27.869,29.491 C27.672,28.974 27.09,28.719 26.578,28.915 L25.746,29.233 C25.23,29.43 24.973,30.008 25.17,30.524 C25.322,30.921 25.701,31.166 26.104,31.166 Z" id="Path"></path>
                <path d="M36.13,32.27 C36.249,32.27 36.37,32.249 36.487,32.204 L37.318,31.886 C37.834,31.689 38.092,31.111 37.894,30.595 C37.697,30.078 37.116,29.824 36.603,30.019 L35.772,30.337 C35.256,30.534 34.998,31.112 35.196,31.628 C35.349,32.026 35.728,32.27 36.13,32.27 Z" id="Path"></path>
                <path d="M16.086,33.528 L16.967,33.658 C17.016,33.666 17.066,33.669 17.113,33.669 C17.601,33.669 18.028,33.312 18.101,32.815 C18.182,32.269 17.804,31.76 17.257,31.68 L16.376,31.55 C15.827,31.462 15.321,31.848 15.241,32.394 C15.161,32.939 15.539,33.448 16.086,33.528 Z" id="Path"></path>
                <path d="M29.639,33.463 L30.52,33.593 C30.569,33.601 30.619,33.604 30.666,33.604 C31.154,33.604 31.581,33.247 31.654,32.75 C31.735,32.204 31.357,31.695 30.81,31.615 L29.929,31.485 C29.378,31.395 28.874,31.783 28.794,32.329 C28.714,32.875 29.092,33.383 29.639,33.463 Z" id="Path"></path>
                <path d="M0.004,70.943 L0.004,79.026 C0.004,79.579 0.451,80.026 1.004,80.026 L79.004,80.026 C79.557,80.026 80.004,79.579 80.004,79.026 L80.004,70.943 C80.004,70.39 79.557,69.943 79.004,69.943 L77.29,69.943 C77.491,69.515 77.612,69.043 77.612,68.54 L77.612,51.569 C77.612,50.305 76.868,49.22 75.8,48.703 C75.81,48.646 75.834,48.593 75.834,48.533 L75.834,32.614 C76.883,32.09 77.611,31.017 77.611,29.767 L77.611,25.189 C77.611,20.326 74.958,15.842 70.688,13.489 C69.892,13.051 69.398,12.205 69.398,11.284 L69.398,9.318 C70.379,9.08 71.113,8.2 71.113,7.147 L71.113,2.261 C71.113,1.027 70.108,0.022 68.874,0.022 L59.605,0.022 C58.371,0.022 57.367,1.027 57.367,2.261 L57.367,7.147 C57.367,8.288 58.228,9.222 59.333,9.359 L59.333,10.878 C59.333,11.957 58.728,12.964 57.752,13.506 C53.506,15.865 50.868,20.343 50.868,25.19 L50.868,29.768 C50.868,31.018 51.597,32.092 52.646,32.616 L52.646,48.534 C52.646,48.594 52.67,48.646 52.68,48.704 C51.612,49.221 50.868,50.306 50.868,51.57 L50.868,68.54 C50.868,69.043 50.989,69.516 51.19,69.943 L44.763,69.943 C45.411,69.193 45.869,68.267 46.043,67.225 L46.398,65.094 C46.572,64.047 46.279,62.983 45.592,62.174 C45.253,61.774 44.836,61.459 44.373,61.242 L44.373,57.913 C44.666,57.837 44.998,57.786 45.447,57.786 C45.995,57.786 46.441,57.345 46.447,56.797 C46.448,56.708 46.442,55.035 45.228,53.375 C46.659,52.778 47.669,51.366 47.669,49.721 L47.669,48.796 C47.669,46.817 46.205,45.187 44.306,44.896 L44.306,42.096 C44.973,41.862 45.576,41.464 46.029,40.891 C46.754,39.976 47.015,38.799 46.747,37.664 L46.616,37.108 C44.866,29.712 38.336,24.546 30.735,24.546 L18.707,24.546 C10.873,24.546 4.13,30.133 2.673,37.83 C2.462,38.944 2.757,40.084 3.481,40.957 C3.956,41.53 4.585,41.922 5.276,42.138 L5.276,44.895 C3.381,45.189 1.922,46.817 1.922,48.794 L1.922,49.719 C1.922,51.322 2.884,52.699 4.257,53.321 C2.898,54.971 3.14,56.83 3.154,56.93 C3.226,57.42 3.647,57.784 4.143,57.784 C4.653,57.784 5.024,57.844 5.343,57.939 L5.343,61.193 C4.831,61.41 4.366,61.735 3.997,62.171 C3.31,62.98 3.018,64.044 3.191,65.091 L3.546,67.222 C3.72,68.264 4.178,69.19 4.826,69.94 L1.003,69.94 C0.451,69.943 0.004,70.39 0.004,70.943 Z M7.343,60.934 L7.343,58.822 C7.848,58.994 8.464,59.12 9.304,59.12 C10.837,59.12 11.637,58.706 12.343,58.342 C12.944,58.031 13.417,57.786 14.465,57.786 C15.512,57.786 15.986,58.031 16.586,58.342 C17.292,58.706 18.092,59.12 19.626,59.12 C21.159,59.12 21.96,58.706 22.666,58.342 C23.267,58.031 23.741,57.786 24.789,57.786 C25.837,57.786 26.311,58.031 26.912,58.342 C27.618,58.706 28.419,59.12 29.953,59.12 C31.487,59.12 32.288,58.706 32.994,58.342 C33.595,58.031 34.069,57.786 35.116,57.786 C36.165,57.786 36.639,58.031 37.24,58.342 C37.947,58.706 38.748,59.12 40.282,59.12 C41.196,59.12 41.846,58.972 42.375,58.776 L42.375,60.933 L38.51,60.933 C36.169,60.933 33.969,61.844 32.316,63.499 L30.425,65.389 L28.534,63.499 C26.881,61.844 24.68,60.933 22.34,60.933 L7.343,60.933 L7.343,60.934 Z M45.671,48.796 L45.671,49.721 C45.671,50.802 44.791,51.681 43.71,51.681 L19.241,51.681 C19.492,51.677 19.741,51.582 19.933,51.391 L22.666,48.659 C23.854,47.47 25.437,46.814 27.119,46.814 L43.307,46.814 C43.359,46.814 43.403,46.792 43.453,46.785 C43.537,46.808 43.619,46.837 43.71,46.837 C44.791,46.836 45.671,47.715 45.671,48.796 Z M7.275,44.814 L7.275,42.334 L42.307,42.334 L42.307,44.814 L27.119,44.814 C24.901,44.814 22.818,45.677 21.252,47.245 L19.226,49.27 L17.2,47.245 C15.633,45.678 13.549,44.814 11.332,44.814 L7.275,44.814 Z M4.638,38.204 C5.916,31.451 11.833,26.549 18.707,26.549 L30.736,26.549 C37.405,26.549 43.135,31.081 44.67,37.57 L44.801,38.126 C44.929,38.663 44.805,39.219 44.462,39.652 C44.119,40.085 43.606,40.334 43.054,40.334 L6.402,40.334 C5.866,40.334 5.362,40.097 5.02,39.685 C4.678,39.27 4.538,38.731 4.638,38.204 Z M3.921,48.796 C3.921,47.715 4.8,46.836 5.881,46.836 L6.363,46.836 C6.403,46.836 6.436,46.818 6.474,46.814 L11.331,46.814 C13.014,46.814 14.596,47.469 15.785,48.659 L18.517,51.391 C18.708,51.582 18.958,51.677 19.209,51.681 L5.879,51.681 C4.798,51.681 3.919,50.802 3.919,49.721 L3.919,48.796 L3.921,48.796 Z M6.834,53.747 C6.864,53.73 6.882,53.701 6.91,53.682 L42.777,53.682 C43.679,54.409 44.097,55.256 44.287,55.88 C43.46,56.023 42.91,56.306 42.407,56.566 C41.806,56.877 41.331,57.122 40.282,57.122 C39.233,57.122 38.759,56.877 38.158,56.566 C37.451,56.202 36.65,55.788 35.116,55.788 C33.583,55.788 32.782,56.202 32.076,56.566 C31.475,56.877 31.001,57.122 29.953,57.122 C28.905,57.122 28.431,56.877 27.83,56.566 C27.124,56.202 26.323,55.788 24.789,55.788 C23.255,55.788 22.454,56.202 21.748,56.566 C21.147,56.877 20.673,57.122 19.626,57.122 C18.578,57.122 18.105,56.877 17.504,56.566 C16.798,56.202 15.998,55.788 14.465,55.788 C12.931,55.788 12.131,56.202 11.425,56.566 C10.824,56.877 10.351,57.122 9.304,57.122 C8.256,57.122 7.783,56.877 7.182,56.566 C6.658,56.295 6.08,55.997 5.19,55.862 C5.324,55.238 5.72,54.375 6.834,53.747 Z M5.522,63.467 C5.76,63.186 6.084,63.002 6.439,62.934 L22.339,62.934 C24.119,62.934 25.861,63.656 27.119,64.914 L29.717,67.511 C29.912,67.706 30.168,67.804 30.424,67.804 C30.68,67.804 30.936,67.706 31.131,67.511 L33.729,64.914 C35.005,63.637 36.703,62.934 38.509,62.934 L43.15,62.934 C43.505,63.003 43.829,63.186 44.067,63.467 C44.372,63.826 44.503,64.3 44.425,64.766 L44.07,66.897 C43.784,68.615 42.312,69.862 40.57,69.862 L9.02,69.862 C7.278,69.862 5.806,68.615 5.52,66.897 L5.165,64.766 C5.087,64.3 5.218,63.827 5.522,63.467 Z M73.835,32.96 L73.835,48.375 L54.647,48.375 L54.647,32.96 L73.835,32.96 Z M59.368,2.261 C59.368,2.129 59.474,2.022 59.606,2.022 L68.875,2.022 C69.007,2.022 69.114,2.129 69.114,2.261 L69.114,7.147 C69.114,7.279 69.007,7.386 68.875,7.386 L59.606,7.386 C59.474,7.386 59.368,7.279 59.368,7.147 L59.368,2.261 Z M52.869,25.189 C52.869,21.068 55.112,17.261 58.723,15.253 C60.333,14.359 61.333,12.683 61.333,10.877 L61.333,9.386 L67.398,9.386 L67.398,11.283 C67.398,12.932 68.289,14.449 69.722,15.24 C73.354,17.241 75.611,21.053 75.611,25.188 L75.611,29.766 C75.611,30.424 75.076,30.959 74.418,30.959 L54.062,30.959 C53.404,30.959 52.869,30.424 52.869,29.766 L52.869,25.189 Z M54.192,69.862 C53.463,69.862 52.869,69.269 52.869,68.54 L52.869,51.569 C52.869,50.911 53.404,50.376 54.062,50.376 L74.418,50.376 C75.076,50.376 75.611,50.911 75.611,51.569 L75.611,68.54 C75.611,69.269 75.018,69.862 74.289,69.862 C74.149,69.862 74.017,69.891 73.896,69.943 L54.586,69.943 C54.465,69.891 54.332,69.862 54.192,69.862 Z M2.004,71.943 L78.004,71.943 L78.004,78.026 L2.004,78.026 L2.004,71.943 Z" id="Shape"></path>
                <path d="M67.923,20.407 C69.711,21.392 70.822,23.269 70.822,25.304 L70.822,27.746 C70.822,28.299 71.269,28.746 71.822,28.746 C72.375,28.746 72.822,28.299 72.822,27.746 L72.822,25.304 C72.822,22.54 71.314,19.992 68.887,18.655 C68.406,18.39 67.795,18.565 67.529,19.049 C67.263,19.533 67.438,20.14 67.923,20.407 Z" id="Path"></path>
                <path d="M71.822,54.361 C71.269,54.361 70.822,54.808 70.822,55.361 L70.822,65.185 C70.822,65.738 71.269,66.185 71.822,66.185 C72.375,66.185 72.822,65.738 72.822,65.185 L72.822,55.361 C72.822,54.808 72.375,54.361 71.822,54.361 Z" id="Path"></path>
            </g>
        </g>
    </g>
</svg>