<?xml version="1.0" encoding="UTF-8"?>
<svg width="50px" height="50px" viewBox="0 0 50 50" version="1.1" xmlns="http://www.w3.org/2000/svg" xmlns:xlink="http://www.w3.org/1999/xlink">
    <!-- Generator: Sketch 63.1 (92452) - https://sketch.com -->
    <title>noun_Calendar_142745</title>
    <desc>Created with Sketch.</desc>
    <g id="version-2" stroke="none" stroke-width="1" fill="none" fill-rule="evenodd">
        <g id="fictiv-Careers" transform="translate(-813.000000, -1767.000000)" fill="#1FBE93" fill-rule="nonzero" stroke="#1FBE93">
            <g id="noun_Calendar_142745" transform="translate(813.000000, 1768.000000)">
                <path d="M31.7666667,4.68292683 L18.525,4.68292683 L18.525,6.43902439 L31.7666667,6.43902439 L31.7666667,4.68292683 L31.7666667,4.68292683 Z M44.5416667,4.68292683 L36.9583333,4.68292683 L36.9583333,6.43902439 L44.5416667,6.43902439 C46.2916667,6.43902439 47.75,7.90243902 47.75,9.65853659 L47.75,37.4634146 L43.9,37.4634146 C41.1583333,37.4634146 38.9416667,39.6878049 38.9416667,42.4390244 L38.9416667,46.2439024 L5.45833333,46.2439024 C3.70833333,46.2439024 2.25,44.7804878 2.25,43.0243902 L2.25,9.65853659 C2.25,7.90243902 3.70833333,6.43902439 5.45833333,6.43902439 L13.3333333,6.43902439 L13.3333333,4.68292683 L5.45833333,4.68292683 C2.71666667,4.68292683 0.5,6.90731707 0.5,9.65853659 L0.5,43.0243902 C0.5,45.7756098 2.71666667,48 5.45833333,48 L40.6916667,48 L40.75,47.9414634 L49.2666667,39.5121951 L49.5,39.2780488 L49.5,9.65853659 C49.5,6.90731707 47.2833333,4.68292683 44.5416667,4.68292683 Z M40.6916667,45.4829268 L40.6916667,42.4390244 C40.6916667,40.6829268 42.15,39.2195122 43.9,39.2195122 L47.05,39.2195122 L40.6916667,45.4829268 Z M15.9,11.2390244 C16.3666667,11.2390244 16.775,10.8292683 16.775,10.3609756 L16.775,0.87804878 C16.775,0.409756098 16.3666667,0 15.9,0 C15.4333333,0 15.025,0.409756098 15.025,0.87804878 L15.025,10.3609756 C15.025,10.8878049 15.4333333,11.2390244 15.9,11.2390244 Z M34.3916667,11.2390244 C34.8583333,11.2390244 35.2666667,10.8292683 35.2666667,10.3609756 L35.2666667,0.87804878 C35.2666667,0.409756098 34.8583333,0 34.3916667,0 C33.925,0 33.5166667,0.409756098 33.5166667,0.87804878 L33.5166667,10.3609756 C33.5166667,10.8878049 33.8666667,11.2390244 34.3916667,11.2390244 Z M22.4333333,37.3463415 C22.6083333,37.5219512 22.8416667,37.6390244 23.075,37.6390244 L23.075,37.6390244 C23.3666667,37.6390244 23.6,37.5219512 23.775,37.2878049 L37.95,19.2 C38.2416667,18.7902439 38.1833333,18.2634146 37.775,17.9707317 C37.425,17.6780488 36.8416667,17.7365854 36.55,18.1463415 L23.075,35.4146341 L15.1416667,25.7560976 C14.85,25.404878 14.2666667,25.3463415 13.9166667,25.6390244 C13.5666667,25.9317073 13.5083333,26.5170732 13.8,26.8682927 L22.4333333,37.3463415 Z" id="Shape"></path>
            </g>
        </g>
    </g>
</svg>