<?xml version="1.0" encoding="UTF-8"?>
<svg width="84px" height="81px" viewBox="0 0 84 81" version="1.1" xmlns="http://www.w3.org/2000/svg" xmlns:xlink="http://www.w3.org/1999/xlink">
    <!-- Generator: Sketch 63.1 (92452) - https://sketch.com -->
    <title>Group 7</title>
    <desc>Created with Sketch.</desc>
    <g id="version-2" stroke="none" stroke-width="1" fill="none" fill-rule="evenodd">
        <g id="fictiv-Careers" transform="translate(-1013.000000, -1980.000000)" fill="#1FBE93">
            <g id="Group-7" transform="translate(1013.000000, 1980.000000)">
                <path d="M41.8882979,33.3970596 L5.04714894,18.1519532 L41.8882979,2.90774043 L78.7294468,18.1519532 L41.8882979,33.3970596 Z M69.8138298,51.6625915 L64.2287234,51.6625915 L64.2287234,45.9407617 L64.2287234,40.4923787 C64.2287234,38.9526766 65.4806809,37.6998255 67.0212766,37.6998255 C68.5618723,37.6998255 69.8138298,38.9526766 69.8138298,40.4923787 L69.8138298,51.6625915 Z M69.8138298,35.657017 C69.6252766,35.5488894 69.4268936,35.4523787 69.2249362,35.3639106 C69.2106383,35.3585489 69.1990213,35.3505064 69.185617,35.3451447 C68.9389787,35.2405915 68.6807234,35.1574851 68.4171064,35.0895702 L68.4171064,25.4411872 L69.8138298,24.863017 L69.8138298,35.657017 Z M41.8882979,43.2849319 C36.2111489,43.2849319 20.4093191,43.5351447 13.962766,46.1766766 L13.962766,24.8639106 L41.3530213,36.1976553 C41.5254894,36.2691447 41.7068936,36.3039957 41.8882979,36.3039957 C42.0697021,36.3039957 42.2511064,36.2691447 42.4235745,36.1976553 L65.6245532,26.5975277 L65.6245532,35.1056553 C63.221617,35.7302936 61.4361702,37.8982085 61.4361702,40.4923787 L61.4361702,44.3420809 C56.0172766,43.6593574 49.1560851,43.2849319 41.8882979,43.2849319 L41.8882979,43.2849319 Z M82.9151489,16.8624638 L42.4235745,0.107144681 C42.0795319,-0.0358340426 41.6970638,-0.0358340426 41.3530213,0.107144681 L0.861446809,16.8624638 C0.340468085,17.0769319 0,17.5871872 0,18.1519532 C0,18.7176128 0.340468085,19.2278681 0.861446809,19.4423362 L11.1702128,23.7084638 L11.1702128,48.8700383 C11.1702128,49.6412298 11.7939574,50.2667617 12.5660426,50.2667617 C13.23,50.2667617 13.7840426,49.8047617 13.9279149,49.1872723 C15.2638723,48.0595277 24.4815319,46.0774851 41.8882979,46.0774851 C49.2132766,46.0774851 56.0798298,46.4644213 61.4361702,47.1659106 L61.4361702,53.0593149 C61.4361702,53.8296128 62.0599149,54.4551447 62.832,54.4551447 L71.2105532,54.4551447 C71.9826383,54.4551447 72.606383,53.8296128 72.606383,53.0593149 L72.606383,40.4923787 L72.606383,23.7084638 L82.9151489,19.4423362 C83.4361277,19.2278681 83.7765957,18.7176128 83.7765957,18.1519532 C83.7765957,17.5871872 83.4361277,17.0769319 82.9151489,16.8624638 L82.9151489,16.8624638 Z" id="Fill-1"></path>
                <path d="M43.2845745,75.3996511 L43.2845745,72.3497362 C44.9055957,71.771566 46.0771277,70.2363319 46.0771277,68.4187149 C46.0771277,66.1087149 44.1969574,64.2294383 41.8887447,64.2294383 C41.1175532,64.2294383 40.4920213,63.6021191 40.4920213,62.8327149 C40.4920213,62.0642043 41.1175532,61.4368851 41.8887447,61.4368851 C42.6590426,61.4368851 43.2845745,62.0642043 43.2845745,62.8327149 L46.0771277,62.8327149 C46.0771277,61.0150979 44.9055957,59.4798638 43.2845745,58.9016936 L43.2845745,55.8517787 L40.4920213,55.8517787 L40.4920213,58.9016936 C38.871,59.4798638 37.6994681,61.0150979 37.6994681,62.8327149 C37.6994681,65.1427149 39.5787447,67.0219915 41.8887447,67.0219915 C42.6590426,67.0219915 43.2845745,67.6493106 43.2845745,68.4187149 C43.2845745,69.1872255 42.6590426,69.8145447 41.8887447,69.8145447 C41.1175532,69.8145447 40.4920213,69.1872255 40.4920213,68.4187149 L37.6994681,68.4187149 C37.6994681,70.2363319 38.871,71.771566 40.4920213,72.3497362 L40.4920213,75.3996511 L43.2845745,75.3996511 Z" id="Fill-3"></path>
                <path d="M29.3218085,65.6257149 C29.3218085,58.6975021 34.9587447,53.0587787 41.8887447,53.0587787 C48.8178511,53.0587787 54.4547872,58.6975021 54.4547872,65.6257149 C54.4547872,72.5539277 48.8178511,78.1926511 41.8887447,78.1926511 C34.9587447,78.1926511 29.3218085,72.5539277 29.3218085,65.6257149 M57.2473404,65.6257149 C57.2473404,57.1569064 50.3566596,50.2671191 41.8887447,50.2671191 C33.4199362,50.2671191 26.5292553,57.1569064 26.5292553,65.6257149 C26.5292553,74.0945234 33.4199362,80.9843106 41.8887447,80.9843106 C50.3566596,80.9843106 57.2473404,74.0945234 57.2473404,65.6257149" id="Fill-5"></path>
            </g>
        </g>
    </g>
</svg>