<?xml version="1.0" encoding="UTF-8"?>
<svg width="63px" height="61px" viewBox="0 0 63 61" version="1.1" xmlns="http://www.w3.org/2000/svg" xmlns:xlink="http://www.w3.org/1999/xlink">
    <!-- Generator: Sketch 63.1 (92452) - https://sketch.com -->
    <title>noun_Baby_2594769</title>
    <desc>Created with Sketch.</desc>
    <g id="version-2" stroke="none" stroke-width="1" fill="none" fill-rule="evenodd">
        <g id="fictiv-Careers" transform="translate(-1024.000000, -1762.000000)" fill="#1FBE93" fill-rule="nonzero">
            <g id="noun_Baby_2594769" transform="translate(1024.000000, 1762.000000)">
                <path d="M22.8893649,42.8679435 C16.6608115,42.8679435 10.8700668,40.4281754 6.58380166,35.9978264 C2.33815524,31.6095514 0,25.7325416 0,19.4493448 C0,18.9378402 0.414654738,18.5231855 0.926159274,18.5231855 L45.3818044,18.5231855 C45.893309,18.5231855 46.3079637,18.9378402 46.3079637,19.4493448 C46.3079637,32.3623866 35.8024068,42.8679435 22.8893649,42.8679435 Z M1.87044481,20.375504 C2.32889365,32.0223538 11.3959929,41.015625 22.8893649,41.015625 C34.471119,41.015625 43.9498299,31.8397681 44.4360635,20.375504 L1.87044481,20.375504 Z" id="Shape"></path>
                <path d="M10.187752,53.452621 C9.67624748,53.452621 9.26159274,53.0379662 9.26159274,52.5264617 L9.26159274,45.9110383 C9.26159274,45.6899509 9.34071321,45.4761404 9.48453251,45.3082409 L41.2385648,8.26186996 C41.414535,8.05665953 41.6713458,7.93850806 41.9417843,7.93850806 L53.8495464,7.93850806 C54.3610509,7.93850806 54.7757056,8.3531628 54.7757056,8.86466734 C54.7757056,9.37617187 54.3610509,9.79082661 53.8495464,9.79082661 L42.3678175,9.79082661 L11.1139113,46.2537172 L11.1139113,52.5264617 C11.1139113,53.0379662 10.6992566,53.452621 10.187752,53.452621 Z" id="Path"></path>
                <path d="M40.6194934,53.4528856 C40.2797253,53.4528856 39.9526588,53.2652722 39.7903163,52.9407195 L33.1748929,39.7098727 C33.0313382,39.4227634 33.0465537,39.0818044 33.2155116,38.8087198 C33.3842049,38.5356351 33.6822959,38.3694556 34.0032762,38.3694556 L44.5879536,38.3694556 C45.0994582,38.3694556 45.5141129,38.7841104 45.5141129,39.2956149 C45.5141129,39.8071195 45.0994582,40.2217742 44.5879536,40.2217742 L35.5018019,40.2217742 L41.4470829,52.1122039 C41.6758443,52.5697266 41.4903478,53.1260837 41.0329574,53.354845 C40.8999874,53.4213962 40.758682,53.4528856 40.6194934,53.4528856 Z" id="Path"></path>
                <path d="M40.6186996,60.0680444 C36.4602445,60.0680444 33.0771169,56.6849168 33.0771169,52.5264617 C33.0771169,48.3680066 36.4602445,44.984879 40.6186996,44.984879 C44.7771547,44.984879 48.1602823,48.3680066 48.1602823,52.5264617 C48.1602823,56.6849168 44.7771547,60.0680444 40.6186996,60.0680444 Z M40.6186996,46.8371976 C37.4816658,46.8371976 34.9294355,49.3894279 34.9294355,52.5264617 C34.9294355,55.6634955 37.4816658,58.2157258 40.6186996,58.2157258 C43.7557334,58.2157258 46.3079637,55.6634955 46.3079637,52.5264617 C46.3079637,49.3894279 43.7557334,46.8371976 40.6186996,46.8371976 Z" id="Shape"></path>
                <path d="M40.6186996,54.7757056 C39.37844,54.7757056 38.3694556,53.7667213 38.3694556,52.5264617 C38.3694556,51.2862021 39.37844,50.2772177 40.6186996,50.2772177 C41.8589592,50.2772177 42.8679435,51.2862021 42.8679435,52.5264617 C42.8679435,53.7667213 41.8589592,54.7757056 40.6186996,54.7757056 Z M40.6186996,52.1295363 C40.3998614,52.1295363 40.2217742,52.3076235 40.2217742,52.5264617 C40.2217742,52.7452999 40.3998614,52.9233871 40.6186996,52.9233871 C40.8375378,52.9233871 41.015625,52.7452999 41.015625,52.5264617 C41.015625,52.3076235 40.8375378,52.1295363 40.6186996,52.1295363 Z" id="Shape"></path>
                <path d="M10.187752,54.7757056 C8.94749244,54.7757056 7.93850806,53.7667213 7.93850806,52.5264617 C7.93850806,51.2862021 8.94749244,50.2772177 10.187752,50.2772177 C11.4280116,50.2772177 12.436996,51.2862021 12.436996,52.5264617 C12.436996,53.7667213 11.4280116,54.7757056 10.187752,54.7757056 Z M10.187752,52.1295363 C9.96891381,52.1295363 9.79082661,52.3076235 9.79082661,52.5264617 C9.79082661,52.7452999 9.96891381,52.9233871 10.187752,52.9233871 C10.4065902,52.9233871 10.5846774,52.7452999 10.5846774,52.5264617 C10.5846774,52.3076235 10.4065902,52.1295363 10.187752,52.1295363 Z" id="Shape"></path>
                <path d="M10.187752,60.0680444 C6.02929687,60.0680444 2.64616935,56.6849168 2.64616935,52.5264617 C2.64616935,48.3680066 6.02929687,44.984879 10.187752,44.984879 C14.3462072,44.984879 17.7293347,48.3680066 17.7293347,52.5264617 C17.7293347,56.6849168 14.3462072,60.0680444 10.187752,60.0680444 Z M10.187752,46.8371976 C7.05071825,46.8371976 4.4984879,49.3894279 4.4984879,52.5264617 C4.4984879,55.6634955 7.05071825,58.2157258 10.187752,58.2157258 C13.3247858,58.2157258 15.8770161,55.6634955 15.8770161,52.5264617 C15.8770161,49.3894279 13.3247858,46.8371976 10.187752,46.8371976 Z" id="Shape"></path>
                <path d="M19.4493448,15.0831653 L0.926159274,15.0831653 C0.414654738,15.0831653 0,14.6685106 0,14.157006 C0,6.35080645 6.35080645,0 14.157006,0 L19.4493448,0 C19.9608493,0 20.375504,0.414654738 20.375504,0.926159274 L20.375504,14.157006 C20.375504,14.6685106 19.9608493,15.0831653 19.4493448,15.0831653 Z M1.88685106,13.2308468 L18.5231855,13.2308468 L18.5231855,1.85231855 L14.157006,1.85231855 C7.68354965,1.85231855 2.36170615,6.87673261 1.88685106,13.2308468 Z" id="Shape"></path>
                <path d="M45.3818044,20.375504 L0.926159274,20.375504 C0.414654738,20.375504 0,19.9608493 0,19.4493448 L0,14.157006 C0,13.6455015 0.414654738,13.2308468 0.926159274,13.2308468 L45.3818044,13.2308468 C45.893309,13.2308468 46.3079637,13.6455015 46.3079637,14.157006 L46.3079637,19.4493448 C46.3079637,19.9608493 45.893309,20.375504 45.3818044,20.375504 Z M1.85231855,18.5231855 L44.4556452,18.5231855 L44.4556452,15.0831653 L1.85231855,15.0831653 L1.85231855,18.5231855 Z" id="Shape"></path>
                <path d="M55.5206023,33.9610698 C55.5198085,33.9610698 55.5190146,33.9610698 55.5180885,33.9610698 L55.4770728,33.9609375 C52.7757308,33.9539252 49.9824345,33.9467805 48.4373362,32.4014176 C47.9173639,31.8814453 47.6309161,31.1913243 47.6309161,30.4582031 C47.6309161,29.7250819 47.9173639,29.0349609 48.4374685,28.5148564 C48.9567792,27.9955456 49.5358934,27.7333102 50.2056389,27.7145224 C50.222839,27.1254851 50.4302986,26.5218939 51.0072959,25.9448967 C51.5274005,25.4249244 52.2173891,25.1384766 52.9506426,25.1384766 C53.6838962,25.1384766 54.3738848,25.4249244 54.8939894,25.9448967 C56.4333984,27.484438 56.4466293,30.2642389 56.4467616,32.9642578 C56.4486139,32.9875441 56.4494078,33.011095 56.4494078,33.0347782 C56.4494078,33.5462828 56.034753,33.9609375 55.5232485,33.9609375 C55.5225869,33.9610698 55.5215285,33.9610698 55.5206023,33.9610698 Z M50.2837009,29.5657825 C50.1431893,29.5657825 49.9862714,29.5857611 49.7473223,29.8248425 C49.5770413,29.9951235 49.4833669,30.2200479 49.4833669,30.4583354 C49.4833669,30.696623 49.5770413,30.9215474 49.74719,31.0916961 C50.6237336,31.968372 52.5662865,32.0849357 54.5920615,32.1042528 C54.5767137,30.0737147 54.4608115,28.131691 53.5840033,27.2548828 C53.4139869,27.0847341 53.1890625,26.9910597 52.9506426,26.9910597 C52.7122228,26.9910597 52.4872984,27.0847341 52.317282,27.2548828 C52.0628528,27.5091797 51.9329259,27.6953377 52.2184476,28.5636782 C52.327999,28.8969632 52.2398816,29.26359 51.990877,29.5106099 C51.7416079,29.7576298 51.3741872,29.8427041 51.042093,29.7303742 C50.7148942,29.6196321 50.4668158,29.5657825 50.2837009,29.5657825 Z" id="Shape"></path>
                <path d="M29.1351184,8.81571321 C28.4019972,8.81571321 27.7120086,8.52926537 27.191904,8.0094254 C26.6131867,7.43057586 26.4058594,6.82791079 26.390247,6.24085811 C25.7197077,6.22061492 25.1404612,5.9578503 24.6219443,5.43933342 C23.5505103,4.36776714 23.5505103,2.62433846 24.6219443,1.55277218 C26.1749811,0 28.9897114,0 31.7118259,0 C31.9577873,0 32.1938256,0.0979082661 32.3675466,0.272158518 C32.5412676,0.44640877 32.6386467,0.682579385 32.6379885,0.928540827 L32.6378528,0.968762601 C32.6308405,3.6703692 32.6236958,6.4640625 31.0784652,8.00929309 C30.5582283,8.52939768 29.8682397,8.81571321 29.1351184,8.81571321 Z M27.5295552,4.18200605 C27.7727382,4.18200605 28.0104965,4.27779738 28.1872606,4.45601689 C28.4342805,4.70515373 28.5193548,5.07244204 28.4070249,5.4046686 C28.1179309,6.26004284 28.2475932,6.44553931 28.5016255,6.69957157 C28.6717742,6.86972026 28.8966986,6.96339466 29.1349861,6.96339466 C29.3732737,6.96339466 29.5981981,6.86972026 29.7684791,6.69943926 C30.6450227,5.82289567 30.7615864,3.88034274 30.7810358,1.85456779 C28.7504977,1.86991557 26.808474,1.98581779 25.9316658,2.86262601 C25.5823715,3.21192036 25.5823715,3.78031754 25.9316658,4.12947959 C26.1493133,4.34712702 26.2956464,4.38973034 26.4749244,4.38973034 C26.6594947,4.38973034 26.9098223,4.33693926 27.2403289,4.2281817 C27.3353264,4.19722152 27.4328377,4.18200605 27.5295552,4.18200605 Z" id="Shape"></path>
                <path d="M52.9506426,48.1602823 C52.2175214,48.1602823 51.5274005,47.8738344 51.0072959,47.3537298 C50.4285786,46.7750126 50.2212513,46.1723475 50.2055066,45.5854272 C49.5350995,45.565184 48.9558531,45.302287 48.4373362,44.7839025 C47.9173639,44.2637979 47.6309161,43.5738092 47.6309161,42.8405557 C47.6309161,42.1073022 47.9173639,41.4173135 48.4374685,40.8972089 C49.9902407,39.3444367 52.8051033,39.3444367 55.5272177,39.3444367 C55.7731792,39.3444367 56.0092175,39.442345 56.1829385,39.6165953 C56.3566595,39.7908455 56.4540386,40.0270161 56.4533804,40.2731099 L56.4532447,40.3133317 C56.4462324,43.0149383 56.4390877,45.8086316 54.8938571,47.3538621 C54.3738848,47.8738344 53.6837639,48.1602823 52.9506426,48.1602823 Z M51.3450794,43.5265751 C51.5882623,43.5265751 51.826153,43.6223664 52.0027848,43.8004536 C52.2498047,44.0495905 52.3350113,44.4168788 52.2226815,44.7492377 C51.9334551,45.6046119 52.0631174,45.7899761 52.317282,46.0440083 C52.4874307,46.2142893 52.7123551,46.3079637 52.9506426,46.3079637 C53.1889302,46.3079637 53.4138546,46.2142893 53.5840033,46.0441406 C54.4605469,45.167597 54.5771106,43.2249118 54.59656,41.1992692 C52.5660219,41.2146169 50.6239982,41.3305192 49.7473223,42.2073274 C49.5770413,42.3774761 49.4833669,42.6024005 49.4833669,42.840688 C49.4833669,43.0789756 49.5770413,43.3038999 49.74719,43.4740486 C49.9649698,43.6918284 50.1113029,43.7344317 50.2904486,43.7344317 C50.4750189,43.7344317 50.7253465,43.6816406 51.0558531,43.5728831 C51.1508506,43.5416583 51.2483619,43.5265751 51.3450794,43.5265751 Z" id="Shape"></path>
                <path d="M61.7880544,12.436996 L53.8495464,12.436996 C53.3380418,12.436996 52.9233871,12.0223412 52.9233871,11.5108367 L52.9233871,6.21849798 C52.9233871,5.70699345 53.3380418,5.29233871 53.8495464,5.29233871 L61.7880544,5.29233871 C62.299559,5.29233871 62.7142137,5.70699345 62.7142137,6.21849798 L62.7142137,11.5108367 C62.7142137,12.0223412 62.299559,12.436996 61.7880544,12.436996 Z M54.7757056,10.5846774 L60.8618952,10.5846774 L60.8618952,7.14465726 L54.7757056,7.14465726 L54.7757056,10.5846774 Z" id="Shape"></path>
                <path d="M23.4185988,53.452621 C23.4164819,53.452621 23.4143649,53.452621 23.412248,53.452621 C23.1285786,53.4506363 22.8615801,53.3188571 22.6874622,53.0951235 L13.4258695,41.1873614 C13.1117692,40.7835559 13.1845388,40.2016633 13.5883443,39.8876953 C13.992282,39.5737273 14.5740423,39.6463647 14.8880103,40.0501701 L23.4287865,51.0312437 L33.2800781,38.7171623 C33.5993385,38.3179877 34.1821573,38.2527596 34.5818611,38.5725491 C34.9813004,38.8920741 35.0459992,39.4748929 34.7264743,39.8743322 L24.1417969,53.1051789 C23.9659589,53.324811 23.6997543,53.452621 23.4185988,53.452621 Z" id="Path"></path>
                <path d="M34.0032762,53.452621 L16.8031754,53.452621 C16.2916709,53.452621 15.8770161,53.0379662 15.8770161,52.5264617 C15.8770161,52.0149572 16.2916709,51.6003024 16.8031754,51.6003024 L34.0032762,51.6003024 C34.5147807,51.6003024 34.9294355,52.0149572 34.9294355,52.5264617 C34.9294355,53.0379662 34.5147807,53.452621 34.0032762,53.452621 Z" id="Path"></path>
                <path d="M18.1262601,25.6678427 L2.24924395,25.6678427 C1.73773942,25.6678427 1.32308468,25.253188 1.32308468,24.7416835 C1.32308468,24.2301789 1.73773942,23.8155242 2.24924395,23.8155242 L18.1262601,23.8155242 C18.6377646,23.8155242 19.0524194,24.2301789 19.0524194,24.7416835 C19.0524194,25.253188 18.6377646,25.6678427 18.1262601,25.6678427 Z" id="Path"></path>
            </g>
        </g>
    </g>
</svg>