<?xml version="1.0" encoding="UTF-8"?>
<svg width="70px" height="60px" viewBox="0 0 70 60" version="1.1" xmlns="http://www.w3.org/2000/svg" xmlns:xlink="http://www.w3.org/1999/xlink">
    <!-- Generator: Sketch 63.1 (92452) - https://sketch.com -->
    <title>noun_business development_2536838</title>
    <desc>Created with Sketch.</desc>
    <g id="version-2" stroke="none" stroke-width="1" fill="none" fill-rule="evenodd">
        <g id="fictiv-Careers" transform="translate(-109.000000, -1993.000000)" fill="#1FBE93" fill-rule="nonzero">
            <g id="noun_business-development_2536838" transform="translate(109.000000, 1993.000000)">
                <path d="M16.7349,19.4677 L16.7349,25.879 L15.3076,25.879 C14.5348,25.879 13.9076,26.5062 13.9076,27.279 C13.9076,28.0518 14.5348,28.679 15.3076,28.679 L16.7349,28.679 L16.7349,29.2068 C16.7349,29.9796 17.3621,30.6068 18.1349,30.6068 C18.9077,30.6068 19.5349,29.9803 19.5349,29.2068 L19.5349,28.658 C22.6478,28.4438 25.1174,25.8496 25.1174,22.6828 C25.1174,19.5167 22.6485,16.9225 19.5349,16.709 L19.5349,10.2984 L20.9629,10.2984 C21.7357,10.2984 22.3629,9.6712 22.3629,8.8984 C22.3629,8.1256 21.7357,7.4984 20.9629,7.4984 L19.5349,7.4984 L19.5349,6.9706 C19.5349,6.1978 18.9077,5.5706 18.1349,5.5706 C17.3621,5.5706 16.7349,6.1978 16.7349,6.9706 L16.7349,7.5194 C13.622,7.7336 11.1531,10.3271 11.1531,13.4932 C11.1538,16.6593 13.622,19.2535 16.7349,19.4677 Z M22.3174,22.6828 C22.3174,24.3033 21.1008,25.6312 19.5349,25.837 L19.5349,19.53 C21.1008,19.7351 22.3174,21.063 22.3174,22.6828 Z M16.7349,10.3397 L16.7349,16.646 C15.1697,16.4409 13.9531,15.113 13.9531,13.4925 C13.9538,11.8727 15.1697,10.5455 16.7349,10.3397 Z" id="Shape"></path>
                <path d="M18.1349,35.7602 C27.8782,35.7602 35.8057,27.8327 35.8057,18.0887 C35.8057,8.3447 27.8782,0.4172 18.1349,0.4172 C8.3909,0.4172 0.4634,8.3447 0.4634,18.0887 C0.4634,27.8327 8.3909,35.7602 18.1349,35.7602 Z M18.1349,3.2172 C26.3347,3.2172 33.0057,9.8882 33.0057,18.0887 C33.0057,26.2892 26.3347,32.9602 18.1349,32.9602 C9.9351,32.9602 3.2634,26.2892 3.2634,18.0887 C3.2634,9.8882 9.9351,3.2172 18.1349,3.2172 Z" id="Shape"></path>
                <path d="M64.3377,28.6811 C61.4712,28.6811 59.1395,31.0128 59.1395,33.8786 C59.1395,34.9531 59.4678,35.9527 60.0285,36.7822 L46.9553,50.3587 C46.1034,49.7483 45.0632,49.385 43.9376,49.385 C42.1799,49.385 40.6266,50.2642 39.6851,51.6033 L31.304,47.0435 C31.5987,46.3918 31.7667,45.6722 31.7667,44.912 C31.7667,42.0455 29.4343,39.7138 26.5678,39.7138 C23.7013,39.7138 21.3689,42.0455 21.3689,44.912 C21.3689,45.6442 21.5229,46.3407 21.7973,46.9728 L14.2338,50.9243 C13.2916,49.9751 11.9868,49.3857 10.5462,49.3857 C7.6797,49.3857 5.3473,51.7174 5.3473,54.5839 C5.3473,57.4511 7.6797,59.7835 10.5462,59.7835 C13.4127,59.7835 15.7451,57.4511 15.7451,54.5839 C15.7451,54.1653 15.6898,53.7614 15.5967,53.3715 L23.6131,49.1848 C24.4531,49.7672 25.4702,50.1109 26.5678,50.1109 C27.6381,50.1109 28.6328,49.7854 29.4609,49.2289 L38.7548,54.2864 C38.7492,54.3858 38.7401,54.4838 38.7401,54.5846 C38.7401,57.4518 41.0718,59.7842 43.9383,59.7842 C46.8048,59.7842 49.1372,57.4518 49.1372,54.5846 C49.1372,53.8664 48.9902,53.1818 48.7256,52.5581 L62.1201,38.6491 C62.1362,38.6323 62.1474,38.612 62.1635,38.5945 C62.8257,38.9011 63.5614,39.0775 64.3384,39.0775 C67.2049,39.0775 69.5373,36.7458 69.5373,33.8793 C69.5373,31.0128 67.2042,28.6811 64.3377,28.6811 Z M10.5462,56.9828 C9.2232,56.9828 8.1473,55.9062 8.1473,54.5832 C8.1473,53.2609 9.2232,52.185 10.5462,52.185 C11.4184,52.185 12.1751,52.6575 12.5951,53.3547 C12.5958,53.3561 12.5958,53.3568 12.5965,53.3582 C12.5972,53.3596 12.5979,53.3596 12.5986,53.361 C12.8135,53.7208 12.9451,54.1345 12.9451,54.5832 C12.9451,55.9062 11.8692,56.9828 10.5462,56.9828 Z M24.1689,44.912 C24.1689,43.5897 25.2448,42.5138 26.5678,42.5138 C27.8908,42.5138 28.9667,43.5897 28.9667,44.912 C28.9667,46.2343 27.8908,47.3102 26.5678,47.3102 C25.2448,47.3102 24.1689,46.2343 24.1689,44.912 Z M43.9383,56.9828 C42.616,56.9828 41.5401,55.9062 41.5401,54.5832 C41.5401,53.2609 42.616,52.185 43.9383,52.185 C45.2613,52.185 46.3372,53.2609 46.3372,54.5832 C46.3365,55.9062 45.2606,56.9828 43.9383,56.9828 Z M64.3377,36.2768 C63.0154,36.2768 61.9395,35.2009 61.9395,33.8786 C61.9395,32.5563 63.0154,31.4811 64.3377,31.4811 C65.6607,31.4811 66.7366,32.5563 66.7366,33.8786 C66.7366,35.2009 65.6607,36.2768 64.3377,36.2768 Z" id="Shape"></path>
            </g>
        </g>
    </g>
</svg>