<?xml version="1.0" encoding="UTF-8"?>
<svg width="54px" height="40px" viewBox="0 0 54 40" version="1.1" xmlns="http://www.w3.org/2000/svg" xmlns:xlink="http://www.w3.org/1999/xlink">
    <!-- Generator: Sketch 63.1 (92452) - https://sketch.com -->
    <title>noun_Lotus_188207</title>
    <desc>Created with Sketch.</desc>
    <g id="version-2" stroke="none" stroke-width="1" fill="none" fill-rule="evenodd">
        <g id="fictiv-Careers" transform="translate(-572.000000, -1777.000000)" fill="#1FBE93" fill-rule="nonzero">
            <g id="noun_Lotus_188207" transform="translate(571.000000, 1777.000000)">
                <path d="M54.16,20.858 C52.143,19.891 49.839,19.361 47.462,19.263 C48.098,15.189 47.602,11.091 45.923,7.59 C45.656,7.032 45.08,6.704 44.456,6.742 C41.573,6.963 38.732,7.923 36.143,9.466 C34.539,5.716 32.03,2.509 28.848,0.333 C28.336,-0.017 27.664,-0.017 27.154,0.333 C23.97,2.512 21.46,5.722 19.855,9.474 C17.265,7.931 14.428,6.963 11.545,6.743 C10.926,6.696 10.346,7.032 10.078,7.591 C8.4,11.092 7.918,15.189 8.555,19.262 C6.172,19.359 3.862,19.89 1.84,20.859 C1.281,21.127 0.945,21.71 0.992,22.326 C1.441,28.172 5.237,33.833 10.9,37.101 C14.103,38.951 17.662,39.929 21.189,39.929 L21.19,39.929 C23.589,39.929 25.92,39.442 28,38.557 C30.08,39.442 32.41,39.929 34.811,39.929 L34.811,39.929 C38.338,39.929 41.897,38.95 45.1,37.101 C50.764,33.832 54.561,28.17 55.008,22.326 C55.055,21.708 54.719,21.126 54.16,20.858 Z M43.639,9.854 C44.779,12.755 45.024,16.075 44.409,19.368 C42.238,19.628 40.089,20.249 38.05,21.209 C38.099,20.563 38.134,19.914 38.134,19.259 C38.134,16.88 37.796,14.551 37.167,12.349 C39.184,11.058 41.387,10.19 43.639,9.854 Z M28,3.433 C32.424,6.918 35.133,12.876 35.133,19.258 C35.133,25.638 32.424,31.596 28,35.079 C23.577,31.595 20.868,25.637 20.868,19.258 C20.868,12.877 23.577,6.919 28,3.433 Z M12.363,9.854 C14.614,10.192 16.815,11.065 18.833,12.357 C18.205,14.556 17.868,16.883 17.868,19.258 C17.868,19.912 17.902,20.561 17.953,21.205 C15.916,20.248 13.773,19.628 11.606,19.368 C10.99,16.074 11.222,12.755 12.363,9.854 Z M21.189,36.929 C18.187,36.929 15.148,36.09 12.4,34.503 C7.929,31.922 4.83,27.643 4.108,23.147 C5.703,22.54 7.478,22.222 9.3,22.222 C12.302,22.222 15.341,23.061 18.089,24.65 C18.235,24.734 18.368,24.83 18.509,24.919 C19.552,29.444 21.823,33.505 24.989,36.442 C23.779,36.758 22.499,36.929 21.19,36.929 L21.189,36.929 L21.189,36.929 Z M43.6,34.503 C40.852,36.09 37.813,36.929 34.811,36.929 C33.502,36.929 32.221,36.759 31.012,36.442 C34.177,33.506 36.448,29.446 37.491,24.921 C37.634,24.833 37.765,24.733 37.911,24.649 C40.659,23.062 43.698,22.223 46.7,22.223 C48.522,22.223 50.298,22.54 51.892,23.148 C51.17,27.643 48.071,31.922 43.6,34.503 Z" id="Shape"></path>
            </g>
        </g>
    </g>
</svg>