<?xml version="1.0" encoding="UTF-8"?>
<svg width="15px" height="15px" viewBox="0 0 15 15" version="1.1" xmlns="http://www.w3.org/2000/svg" xmlns:xlink="http://www.w3.org/1999/xlink">
    <g stroke="none" stroke-width="1" fill="none" fill-rule="evenodd">
        <g transform="translate(-220.000000, -7.000000)" fill="#76787A">
            <g id="Search">
                <g id="search-icon">
                    <path d="M230.049758,13.1415186 C230.049758,15.2962843 228.296284,17.0497577 226.141519,17.0497577 C223.986753,17.0497577 222.233279,15.2962843 222.233279,13.1415186 C222.233279,10.9867528 223.986753,9.23327948 226.141519,9.23327948 C228.296284,9.23327948 230.049758,10.9867528 230.049758,13.1415186 L230.049758,13.1415186 Z M235,20.4210016 L231.201292,16.622294 C231.907916,15.6016155 232.283037,14.3802908 232.283037,13.1415186 C232.283037,9.74798061 229.535057,7 226.141519,7 C222.747981,7 220,9.74798061 220,13.1415186 C220,16.5350565 222.747981,19.2830372 226.141519,19.2830372 C227.380291,19.2830372 228.601616,18.907916 229.622294,18.2012924 L233.421002,21.9912763 L235,20.4210016 Z"></path>
                </g>
            </g>
        </g>
    </g>
</svg>