<?xml version="1.0" encoding="UTF-8"?>
<svg width="17px" height="14px" viewBox="0 0 17 14" version="1.1" xmlns="http://www.w3.org/2000/svg" xmlns:xlink="http://www.w3.org/1999/xlink">
    <g id="Symbols" stroke="none" stroke-width="1" fill="none" fill-rule="evenodd">
        <g id="Share-Bar-Desktop" transform="translate(-515.000000, -12.000000)" fill="#1DA1F2" fill-rule="nonzero">
            <path d="M532,13.6588542 C531.373172,13.9395833 530.703115,14.1291667 529.997033,14.2166667 C530.717525,13.7791667 531.272303,13.0864583 531.53168,12.2625 C530.858021,12.6671875 530.112312,12.9625 529.316169,13.1192708 C528.678534,12.4302083 527.770714,12 526.769231,12 C524.841916,12 523.282051,13.5822917 523.282051,15.5328125 C523.282051,15.8098958 523.310871,16.0796875 523.372113,16.3385417 C520.472134,16.1927083 517.899979,14.7854167 516.181606,12.6453125 C515.882602,13.1666667 515.709684,13.7755208 515.709684,14.4208333 C515.709684,15.6458333 516.329307,16.7286458 517.265946,17.3630208 C516.689553,17.3484375 516.149184,17.1880208 515.680865,16.921875 C515.680865,16.9364583 515.680865,16.9510417 515.680865,16.965625 C515.680865,18.6791667 516.884086,20.1046875 518.479975,20.4291667 C518.188175,20.509375 517.878364,20.553125 517.561348,20.553125 C517.337995,20.553125 517.118245,20.53125 516.9057,20.4875 C517.348803,21.8911458 518.638483,22.9119792 520.165925,22.9411458 C518.973511,23.8890625 517.467684,24.4541667 515.832168,24.4541667 C515.551176,24.4541667 515.273787,24.4359375 515,24.403125 C516.53825,25.4166667 518.371901,26 520.338843,26 C526.762026,26 530.27082,20.6151042 530.27082,15.9447917 C530.27082,15.7916667 530.267218,15.6385417 530.260013,15.4890625 C530.940877,14.9895833 531.53168,14.3697917 532,13.6588542 Z" id="Shape"></path>
        </g>
    </g>
</svg>