<?xml version="1.0" encoding="UTF-8"?>
<svg width="23px" height="16px" viewBox="0 0 23 16" version="1.1" xmlns="http://www.w3.org/2000/svg" xmlns:xlink="http://www.w3.org/1999/xlink">
    <title>Shape</title>
    <g id="Symbols" stroke="none" stroke-width="1" fill="none" fill-rule="evenodd">
        <g id="Sidebar-Social" transform="translate(-288.000000, -17.000000)">
            <g id="Group-2-Copy" transform="translate(262.000000, 0.000000)">
                <rect id="Rectangle-Copy-2" fill="#F0F4F5" x="0" y="0" width="75" height="50" rx="3"></rect>
                <g id="youtube" transform="translate(26.000000, 17.000000)" fill="#F61C0D" fill-rule="nonzero">
                    <path d="M17.8719021,0.0192293578 L4.68472171,0.0192293578 C2.09741896,0.0192293578 0,2.11664832 0,4.70395107 L0,11.2961468 C0,13.8834495 2.09741896,15.9808685 4.68472171,15.9808685 L17.8719021,15.9808685 C20.4592049,15.9808685 22.5566239,13.8834495 22.5566239,11.2961468 L22.5566239,4.70395107 C22.5566239,2.11664832 20.4592049,0.0192293578 17.8719021,0.0192293578 Z M14.7036575,8.32078287 L8.5355841,11.262581 C8.37122936,11.3409664 8.18138226,11.2211376 8.18138226,11.0390703 L8.18138226,4.97159633 C8.18138226,4.78693578 8.37622018,4.66725382 8.54091743,4.75072783 L14.7089908,7.87640367 C14.8923792,7.9693211 14.8891988,8.23231804 14.7036575,8.32078287 Z" id="Shape"></path>
                </g>
            </g>
        </g>
    </g>
</svg>