<?xml version="1.0" encoding="UTF-8"?>
<svg width="77px" height="25px" viewBox="0 0 77 25" version="1.1" xmlns="http://www.w3.org/2000/svg" xmlns:xlink="http://www.w3.org/1999/xlink">
    <!-- Generator: Sketch 62 (91390) - https://sketch.com -->
    <title>Logo</title>
    <desc>Created with Sketch.</desc>
    <g id="Symbols" stroke="none" stroke-width="1" fill="none" fill-rule="evenodd">
        <g id="Nav---Desktop" transform="translate(-20.000000, -25.000000)" fill="#16BC9C">
            <g id="Logo" transform="translate(20.000000, 25.000000)">
                <path d="M60,6.66666667 L63.5099711,6.66666667 L67.7089165,19.0602213 C68.0496061,20.0778434 68.2568409,21.557602 68.2893909,21.557602 L68.3577458,21.557602 C68.3892108,21.557602 68.6289955,20.0709287 68.9881301,19.0602213 L73.1870755,6.66666667 L76.6666667,6.66666667 L70.2684287,25 L66.4481479,25 L60,6.66666667 Z" id="Fill-11"></path>
                <polygon id="Path" points="53.3333333 25 56.6666667 25 56.6666667 6.66666667 53.3333333 6.66666667"></polygon>
                <polygon id="Path" points="53.3333333 3.33333333 56.6666667 3.33333333 56.6666667 0 53.3333333 0"></polygon>
                <path d="M42.2438602,9.72611513 L40,9.72611513 L40,6.91537104 L42.3444769,6.91537104 L42.3444769,1.66666667 L45.5436547,1.66666667 L45.5436547,6.91537104 L49.6927405,6.91537104 L49.6927405,9.72611513 L45.5436547,9.72611513 L45.5436547,17.8118643 C45.5436547,21.4459346 47.9573731,21.910199 49.2145407,21.910199 C49.4785243,21.9136296 49.7414259,21.8896159 50,21.838158 L50,24.9267747 C49.6159256,24.9782326 49.2307692,25.0011027 48.844531,25 C46.6320459,25 42.2438602,24.2818358 42.2438602,18.2040877 L42.2438602,9.72611513 Z" id="Fill-7"></path>
                <path d="M29.5575876,6.66666667 C34.0298976,6.66666667 36.2509245,9.22407541 36.2509245,9.22407541 L34.629418,11.5768034 C33.3071113,10.3168064 31.5432887,9.60152429 29.6999036,9.57621431 C26.0938165,9.57621431 23.4895448,12.2040508 23.4895448,15.7958676 C23.3595553,19.1444884 26.0176158,21.9638005 29.4275981,22.0914508 C29.550864,22.0958526 29.6741299,22.096953 29.7985163,22.0947521 C31.869383,22.030927 33.836034,21.1890949 35.2939331,19.7409237 L36.6666667,22.1970925 C34.78294,24.0436208 32.2122862,25.0549197 29.550864,24.9976972 C23.9456285,24.9976972 20,21.0845537 20,15.8288806 C20,10.5732076 23.9579551,6.66666667 29.5575876,6.66666667" id="Fill-4"></path>
                <path d="M13.2194041,9.9533921 L5.65464081,9.9533921 L5.65464081,25 L2.23902527,25 L2.23902527,9.9533921 L0,9.9533921 L0,7.2126641 L2.23902527,7.2126641 L2.23902527,6.61442278 C2.23902527,0.741593953 6.71820607,0 8.99000859,0 C9.43080609,-0.00313262704 9.8693431,0.0315318234 10.3033591,0.104215348 L10.3033591,3.02162022 C10.0106244,2.97130086 9.71449885,2.94781849 9.41724309,2.95005491 C8.10389258,2.95005491 5.64785931,3.37273756 5.64785931,6.67927885 L5.64785931,7.2126641 L16.6666667,7.2126641 L16.6666667,25 L13.2194041,25 L13.2194041,9.9533921 Z" id="Path"></path>
                <polygon id="Path" points="13.3333333 0.0310426033 16.6666667 0.0310426033 16.6666667 3.33333333 13.3333333 3.33333333 13.3333333 0"></polygon>
            </g>
        </g>
    </g>
</svg>