<?xml version="1.0" encoding="UTF-8"?>
<svg width="53px" height="35px" viewBox="0 0 53 35" version="1.1" xmlns="http://www.w3.org/2000/svg" xmlns:xlink="http://www.w3.org/1999/xlink">
    <!-- Generator: Sketch 62 (91390) - https://sketch.com -->
    <title>Twitter Copy</title>
    <desc>Created with Sketch.</desc>
    <g id="Bio-Page" stroke="none" stroke-width="1" fill="none" fill-rule="evenodd">
        <g id="Bio-Page_1280px" transform="translate(-204.000000, -272.000000)">
            <g id="Hero">
                <g id="LinkedIn" transform="translate(204.500000, 272.000000)">
                    <rect id="Rectangle-Copy-3" stroke="#FFFFFF" x="0.5" y="0.5" width="51.5" height="34" rx="3"></rect>
                    <g id="linkedin-copy" fill-rule="evenodd" transform="translate(21.700000, 12.600000)" fill="#FFFFFF">
                        <path d="M1.15530532,2.42506238 C1.80127128,2.42547915 2.31973298,1.91441957 2.32077711,1.27616851 C2.32181809,0.626970638 1.80627553,0.104755745 1.16364574,0.104234214 C0.51361383,0.103817447 -0.000156382979,0.617483404 -5.21435235e-05,1.26772383 C5.21276596e-05,1.9120217 0.511945745,2.42474936 1.15530532,2.42506238 M2.16856277,6.49393872 C2.16856277,5.47275787 2.1673117,4.45147277 2.17054362,3.43029191 C2.17085638,3.31967702 2.14364574,3.27807915 2.0242734,3.2793029 C1.44909681,3.28527277 0.873815957,3.28443872 0.298639362,3.27985149 C0.188128723,3.27891319 0.148198936,3.30497702 0.148509881,3.42434936 C0.152056383,5.46681532 0.152056383,7.50928128 0.148509881,9.55164298 C0.148198936,9.67091106 0.188858511,9.70041532 0.299160638,9.69968553 C0.870167021,9.69593234 1.44127766,9.69447277 2.01228404,9.70065615 C2.14343723,9.7020834 2.17158617,9.65423021 2.17107195,9.53256426 C2.16679043,8.51972383 2.16866702,7.50677915 2.16856277,6.49393872 M5.32124362,4.15590894 C5.32124362,3.88693021 5.31623936,3.65777702 5.32343298,3.42883234 C5.32697766,3.31540255 5.29226064,3.2781834 5.17539043,3.27943447 C4.62919681,3.28516851 4.08289894,3.28631532 3.53670532,3.27880894 C3.40482234,3.2770366 3.37833946,3.32259617 3.37855,3.44384511 C3.38178191,5.47453021 3.38188617,7.50521532 3.37833946,9.53579617 C3.37802872,9.6617366 3.4137883,9.70177064 3.54045851,9.70041532 C4.10750319,9.69478553 4.67465213,9.69457702 5.24159255,9.70065523 C5.37034787,9.70197915 5.40172872,9.65965149 5.40120745,9.53517064 C5.39630745,8.51367702 5.39557766,7.49207915 5.40068617,6.47058553 C5.40172872,6.25926 5.41538617,6.04522383 5.45250106,5.83744298 C5.52954574,5.40561745 5.72763085,5.05646638 6.18989894,4.94043021 C6.32490957,4.90654723 6.46972021,4.89851957 6.60983936,4.89987489 C7.10223723,4.90487915 7.39967766,5.12485787 7.50414149,5.60338979 C7.56471383,5.88081319 7.58347979,6.17168553 7.58608617,6.45682383 C7.59536489,7.48248766 7.59150745,8.50825574 7.58754574,9.53402383 C7.58702447,9.65756638 7.62205426,9.70177064 7.7502883,9.70041532 C8.31733298,9.69468128 8.88437766,9.69488979 9.4515266,9.70031106 C9.57413085,9.70156213 9.60478191,9.65944298 9.60436907,9.54153021 C9.60071596,8.41161106 9.60082021,7.28158766 9.60384362,6.15156426 C9.60499043,5.68825362 9.58069894,5.22765362 9.47425426,4.7754983 C9.35165,4.25474298 9.12687553,3.79476851 8.66481596,3.48544298 C8.3599734,3.28131106 8.01749468,3.18518766 7.65833511,3.14463234 C7.24663085,3.09823872 6.83628191,3.09240043 6.43823511,3.23721106 C5.97190106,3.40683447 5.60575638,3.70187702 5.32124362,4.15590894" id="Fill-1"></path>
                    </g>
                </g>
            </g>
        </g>
    </g>
</svg>