<?xml version="1.0" encoding="UTF-8"?>
<svg width="100px" height="36px" viewBox="0 0 100 36" version="1.1" xmlns="http://www.w3.org/2000/svg" xmlns:xlink="http://www.w3.org/1999/xlink">
    <!-- Generator: Sketch 59.1 (86144) - https://sketch.com -->
    <title>quip_logo</title>
    <desc>Created with Sketch.</desc>
    <defs>
        <polygon id="path-1" points="0 0.348631579 27.5688679 0.348631579 27.5688679 36 0 36"></polygon>
    </defs>
    <g id="version-2" stroke="none" stroke-width="1" fill="none" fill-rule="evenodd">
        <g id="fictiv-3D-printing-solutions" transform="translate(-515.000000, -1412.000000)">
            <g id="quote" transform="translate(0.000000, 1283.000000)">
                <g id="quip_logo" transform="translate(515.000000, 129.000000)">
                    <polygon id="Fill-1" fill="#4FFCCF" points="62.3762376 28 68.3168317 28 68.3168317 2 62.3762376 2"></polygon>
                    <g id="Group-9">
                        <path d="M44.6418868,28.8147789 C37.4550943,28.8053053 31.630566,22.9600421 31.6173585,15.7429895 L31.6173585,2.18804211 L37.2173585,2.18804211 L37.2173585,15.7429895 C37.2173585,19.8640421 40.5437736,23.2044632 44.6475472,23.2044632 C48.7513208,23.2044632 52.0777358,19.8640421 52.0777358,15.7429895 L52.0777358,2.18804211 L57.6777358,2.18804211 L57.6777358,15.7429895 C57.6626415,22.9638316 51.8324528,28.8109895 44.6418868,28.8147789" id="Fill-2" fill="#4FFCCF"></path>
                        <path d="M78.0367925,36 L72.4367925,36 L72.4367925,14.1896842 C72.4386792,6.54631579 78.6103774,0.352421053 86.2216981,0.352421053 C93.8330189,0.354315789 100.000943,6.552 99.999057,14.1953684 C99.999057,21.8387368 93.8292453,28.0326316 86.2179245,28.0326316 L81.7216981,28.0326316 L81.7216981,22.4052632 L86.2179245,22.4052632 C90.7367925,22.4052632 94.3990566,18.7275789 94.3990566,14.1896842 C94.3990566,9.65178947 90.7367925,5.97410526 86.2179245,5.97410526 C81.6990566,5.97410526 78.0367925,9.65178947 78.0367925,14.1896842 L78.0367925,36 Z" id="Fill-4" fill="#4FFCCF"></path>
                        <g id="Group-8">
                            <mask id="mask-2" fill="white">
                                <use xlink:href="#path-1"></use>
                            </mask>
                            <g id="Clip-7"></g>
                            <path d="M27.5688679,36 L21.9688679,36 L21.9688679,14.1896842 C21.9688679,9.65178947 18.3066038,5.97410526 13.7877358,5.97410526 C9.26886792,5.97410526 5.60471698,9.65178947 5.60471698,14.1896842 C5.60471698,18.7275789 9.26886792,22.4052632 13.7877358,22.4052632 L18.2839623,22.4052632 L18.2839623,28.0326316 L13.7877358,28.0326316 C6.1745283,28.0345263 0.000943396226,21.8387368 -0.000943396226,14.1934737 C-0.000943396226,6.54821053 6.16886792,0.348631144 13.7820755,0.348631144 C21.395283,0.346736842 27.5669811,6.54252632 27.5688679,14.1877895 L27.5688679,14.1896842 L27.5688679,36 Z" id="Fill-6" fill="#4FFCCF" mask="url(#mask-2)"></path>
                        </g>
                    </g>
                </g>
            </g>
        </g>
    </g>
</svg>