<?xml version="1.0" encoding="UTF-8"?>
<svg width="53px" height="35px" viewBox="0 0 53 35" version="1.1" xmlns="http://www.w3.org/2000/svg" xmlns:xlink="http://www.w3.org/1999/xlink">
    <!-- Generator: Sketch 62 (91390) - https://sketch.com -->
    <title>Twitter</title>
    <desc>Created with Sketch.</desc>
    <g id="Bio-Page" stroke="none" stroke-width="1" fill="none" fill-rule="evenodd">
        <g id="Bio-Page_1280px" transform="translate(-132.000000, -272.000000)">
            <g id="Hero">
                <g id="Twitter" transform="translate(132.000000, 272.000000)">
                    <rect id="Rectangle-Copy-3" stroke="#FFFFFF" stroke-width="1" x="0.5" y="0.5" width="51.5" height="34" rx="3"></rect>
                    <path d="M34.6628418,12.1667318 C34.0397949,12.4424479 33.3737793,12.6286458 32.6719564,12.7145833 C33.3881022,12.2848958 33.9395345,11.6045573 34.197347,10.7953125 C33.5277507,11.1927734 32.7865397,11.4828125 31.9951986,11.6367839 C31.3614095,10.960026 30.4590658,10.5375 29.463623,10.5375 C27.5479329,10.5375 25.9974772,12.0915365 25.9974772,14.0072266 C25.9974772,14.279362 26.026123,14.5443359 26.0869954,14.7985677 C23.2045085,14.6553385 20.6478678,13.2731771 18.93986,11.1712891 C18.6426595,11.6833333 18.4707845,12.2813151 18.4707845,12.9151042 C18.4707845,14.1182292 19.0866699,15.1817057 20.0176595,15.8047526 C19.4447428,15.7904297 18.9076335,15.6328776 18.4421387,15.3714844 C18.4421387,15.3858073 18.4421387,15.4001302 18.4421387,15.4144531 C18.4421387,17.0973958 19.6381022,18.4974609 21.2243652,18.8161458 C20.9343262,18.8949219 20.6263835,18.9378906 20.3112793,18.9378906 C20.0892741,18.9378906 19.8708496,18.9164062 19.6595866,18.8734375 C20.1000163,20.2520182 21.3819173,21.2546224 22.9001465,21.2832682 C21.7149251,22.2142578 20.2181803,22.7692708 18.5925293,22.7692708 C18.3132324,22.7692708 18.0375163,22.7513672 17.7653809,22.7191406 C19.2943522,23.7145833 21.1169434,24.2875 23.0720215,24.2875 C29.4564616,24.2875 32.9440918,18.998763 32.9440918,14.411849 C32.9440918,14.2614583 32.9405111,14.1110677 32.9333496,13.9642578 C33.6101074,13.4736979 34.197347,12.864974 34.6628418,12.1667318 Z" id="Shape-Copy" fill="#FFFFFF" fill-rule="nonzero"></path>
                </g>
            </g>
        </g>
    </g>
</svg>